<svg width="472" height="174" viewBox="0 0 472 174" fill="none" xmlns="http://www.w3.org/2000/svg">
<rect width="472" height="173.211" fill="white"/>
<path d="M160.482 138.506H158.936L158.467 140.908H157.629L158.098 138.506H156.697V137.703H158.25L158.654 135.629H157.143V134.814H158.812L159.293 132.377H160.131L159.65 134.814H161.197L161.678 132.377H162.521L162.041 134.814H163.236V135.629H161.883L161.479 137.703H162.797V138.506H161.326L160.857 140.908H160.014L160.482 138.506ZM159.088 137.703H160.635L161.039 135.629H159.492L159.088 137.703ZM169.453 137.27C169.453 138.539 169.236 139.482 168.803 140.1C168.369 140.717 167.691 141.025 166.77 141.025C165.859 141.025 165.186 140.725 164.748 140.123C164.311 139.518 164.084 138.615 164.068 137.416V135.969C164.068 134.715 164.285 133.783 164.719 133.174C165.152 132.564 165.832 132.26 166.758 132.26C167.676 132.26 168.352 132.555 168.785 133.145C169.219 133.73 169.441 134.637 169.453 135.863V137.27ZM168.369 135.787C168.369 134.869 168.24 134.201 167.982 133.783C167.725 133.361 167.316 133.15 166.758 133.15C166.203 133.15 165.799 133.359 165.545 133.777C165.291 134.195 165.16 134.838 165.152 135.705V137.439C165.152 138.361 165.285 139.043 165.551 139.484C165.82 139.922 166.227 140.141 166.77 140.141C167.305 140.141 167.701 139.934 167.959 139.52C168.221 139.105 168.357 138.453 168.369 137.562V135.787ZM176.35 132.986L172.816 140.908H171.68L175.201 133.268H170.584V132.377H176.35V132.986ZM182.156 138.043H183.34V138.928H182.156V140.908H181.066V138.928H177.182V138.289L181.002 132.377H182.156V138.043ZM178.412 138.043H181.066V133.859L180.938 134.094L178.412 138.043ZM188.572 132.371V133.291H188.373C187.529 133.307 186.857 133.557 186.357 134.041C185.857 134.525 185.568 135.207 185.49 136.086C185.939 135.57 186.553 135.312 187.33 135.312C188.072 135.312 188.664 135.574 189.105 136.098C189.551 136.621 189.773 137.297 189.773 138.125C189.773 139.004 189.533 139.707 189.053 140.234C188.576 140.762 187.936 141.025 187.131 141.025C186.314 141.025 185.652 140.713 185.145 140.088C184.637 139.459 184.383 138.65 184.383 137.662V137.246C184.383 135.676 184.717 134.477 185.385 133.648C186.057 132.816 187.055 132.391 188.379 132.371H188.572ZM187.148 136.215C186.777 136.215 186.436 136.326 186.123 136.549C185.811 136.771 185.594 137.051 185.473 137.387V137.785C185.473 138.488 185.631 139.055 185.947 139.484C186.264 139.914 186.658 140.129 187.131 140.129C187.619 140.129 188.002 139.949 188.279 139.59C188.561 139.23 188.701 138.76 188.701 138.178C188.701 137.592 188.559 137.119 188.273 136.76C187.992 136.396 187.617 136.215 187.148 136.215ZM196.23 134.604C196.23 135.029 196.117 135.408 195.891 135.74C195.668 136.072 195.365 136.332 194.982 136.52C195.428 136.711 195.779 136.99 196.037 137.357C196.299 137.725 196.43 138.141 196.43 138.605C196.43 139.344 196.18 139.932 195.68 140.369C195.184 140.807 194.529 141.025 193.717 141.025C192.896 141.025 192.238 140.807 191.742 140.369C191.25 139.928 191.004 139.34 191.004 138.605C191.004 138.145 191.129 137.729 191.379 137.357C191.633 136.986 191.982 136.705 192.428 136.514C192.049 136.326 191.75 136.066 191.531 135.734C191.312 135.402 191.203 135.025 191.203 134.604C191.203 133.885 191.434 133.314 191.895 132.893C192.355 132.471 192.963 132.26 193.717 132.26C194.467 132.26 195.072 132.471 195.533 132.893C195.998 133.314 196.23 133.885 196.23 134.604ZM195.346 138.582C195.346 138.105 195.193 137.717 194.889 137.416C194.588 137.115 194.193 136.965 193.705 136.965C193.217 136.965 192.824 137.113 192.527 137.41C192.234 137.707 192.088 138.098 192.088 138.582C192.088 139.066 192.23 139.447 192.516 139.725C192.805 140.002 193.205 140.141 193.717 140.141C194.225 140.141 194.623 140.002 194.912 139.725C195.201 139.443 195.346 139.062 195.346 138.582ZM193.717 133.15C193.291 133.15 192.945 133.283 192.68 133.549C192.418 133.811 192.287 134.168 192.287 134.621C192.287 135.055 192.416 135.406 192.674 135.676C192.936 135.941 193.283 136.074 193.717 136.074C194.15 136.074 194.496 135.941 194.754 135.676C195.016 135.406 195.146 135.055 195.146 134.621C195.146 134.188 195.012 133.834 194.742 133.561C194.473 133.287 194.131 133.15 193.717 133.15ZM204.352 138.201C204.246 139.104 203.912 139.801 203.35 140.293C202.791 140.781 202.047 141.025 201.117 141.025C200.109 141.025 199.301 140.664 198.691 139.941C198.086 139.219 197.783 138.252 197.783 137.041V136.221C197.783 135.428 197.924 134.73 198.205 134.129C198.49 133.527 198.893 133.066 199.412 132.746C199.932 132.422 200.533 132.26 201.217 132.26C202.123 132.26 202.85 132.514 203.396 133.021C203.943 133.525 204.262 134.225 204.352 135.119H203.221C203.123 134.439 202.91 133.947 202.582 133.643C202.258 133.338 201.803 133.186 201.217 133.186C200.498 133.186 199.934 133.451 199.523 133.982C199.117 134.514 198.914 135.27 198.914 136.25V137.076C198.914 138.002 199.107 138.738 199.494 139.285C199.881 139.832 200.422 140.105 201.117 140.105C201.742 140.105 202.221 139.965 202.553 139.684C202.889 139.398 203.111 138.904 203.221 138.201H204.352Z" fill="black"/>
<path d="M268.482 138.506H266.936L266.467 140.908H265.629L266.098 138.506H264.697V137.703H266.25L266.654 135.629H265.143V134.814H266.812L267.293 132.377H268.131L267.65 134.814H269.197L269.678 132.377H270.521L270.041 134.814H271.236V135.629H269.883L269.479 137.703H270.797V138.506H269.326L268.857 140.908H268.014L268.482 138.506ZM267.088 137.703H268.635L269.039 135.629H267.492L267.088 137.703ZM277.277 134.604C277.277 135.029 277.164 135.408 276.938 135.74C276.715 136.072 276.412 136.332 276.029 136.52C276.475 136.711 276.826 136.99 277.084 137.357C277.346 137.725 277.477 138.141 277.477 138.605C277.477 139.344 277.227 139.932 276.727 140.369C276.23 140.807 275.576 141.025 274.764 141.025C273.943 141.025 273.285 140.807 272.789 140.369C272.297 139.928 272.051 139.34 272.051 138.605C272.051 138.145 272.176 137.729 272.426 137.357C272.68 136.986 273.029 136.705 273.475 136.514C273.096 136.326 272.797 136.066 272.578 135.734C272.359 135.402 272.25 135.025 272.25 134.604C272.25 133.885 272.48 133.314 272.941 132.893C273.402 132.471 274.01 132.26 274.764 132.26C275.514 132.26 276.119 132.471 276.58 132.893C277.045 133.314 277.277 133.885 277.277 134.604ZM276.393 138.582C276.393 138.105 276.24 137.717 275.936 137.416C275.635 137.115 275.24 136.965 274.752 136.965C274.264 136.965 273.871 137.113 273.574 137.41C273.281 137.707 273.135 138.098 273.135 138.582C273.135 139.066 273.277 139.447 273.562 139.725C273.852 140.002 274.252 140.141 274.764 140.141C275.271 140.141 275.67 140.002 275.959 139.725C276.248 139.443 276.393 139.062 276.393 138.582ZM274.764 133.15C274.338 133.15 273.992 133.283 273.727 133.549C273.465 133.811 273.334 134.168 273.334 134.621C273.334 135.055 273.463 135.406 273.721 135.676C273.982 135.941 274.33 136.074 274.764 136.074C275.197 136.074 275.543 135.941 275.801 135.676C276.062 135.406 276.193 135.055 276.193 134.621C276.193 134.188 276.059 133.834 275.789 133.561C275.52 133.287 275.178 133.15 274.764 133.15ZM285.398 138.201C285.293 139.104 284.959 139.801 284.396 140.293C283.838 140.781 283.094 141.025 282.164 141.025C281.156 141.025 280.348 140.664 279.738 139.941C279.133 139.219 278.83 138.252 278.83 137.041V136.221C278.83 135.428 278.971 134.73 279.252 134.129C279.537 133.527 279.939 133.066 280.459 132.746C280.979 132.422 281.58 132.26 282.264 132.26C283.17 132.26 283.896 132.514 284.443 133.021C284.99 133.525 285.309 134.225 285.398 135.119H284.268C284.17 134.439 283.957 133.947 283.629 133.643C283.305 133.338 282.85 133.186 282.264 133.186C281.545 133.186 280.98 133.451 280.57 133.982C280.164 134.514 279.961 135.27 279.961 136.25V137.076C279.961 138.002 280.154 138.738 280.541 139.285C280.928 139.832 281.469 140.105 282.164 140.105C282.789 140.105 283.268 139.965 283.6 139.684C283.936 139.398 284.158 138.904 284.268 138.201H285.398ZM292.008 137.27C292.008 138.539 291.791 139.482 291.357 140.1C290.924 140.717 290.246 141.025 289.324 141.025C288.414 141.025 287.74 140.725 287.303 140.123C286.865 139.518 286.639 138.615 286.623 137.416V135.969C286.623 134.715 286.84 133.783 287.273 133.174C287.707 132.564 288.387 132.26 289.312 132.26C290.23 132.26 290.906 132.555 291.34 133.145C291.773 133.73 291.996 134.637 292.008 135.863V137.27ZM290.924 135.787C290.924 134.869 290.795 134.201 290.537 133.783C290.279 133.361 289.871 133.15 289.312 133.15C288.758 133.15 288.354 133.359 288.1 133.777C287.846 134.195 287.715 134.838 287.707 135.705V137.439C287.707 138.361 287.84 139.043 288.105 139.484C288.375 139.922 288.781 140.141 289.324 140.141C289.859 140.141 290.256 139.934 290.514 139.52C290.775 139.105 290.912 138.453 290.924 137.562V135.787ZM298.5 136.965H294.803V139.988H299.098V140.908H293.678V132.377H299.039V133.303H294.803V136.045H298.5V136.965ZM304.471 132.371V133.291H304.271C303.428 133.307 302.756 133.557 302.256 134.041C301.756 134.525 301.467 135.207 301.389 136.086C301.838 135.57 302.451 135.312 303.229 135.312C303.971 135.312 304.562 135.574 305.004 136.098C305.449 136.621 305.672 137.297 305.672 138.125C305.672 139.004 305.432 139.707 304.951 140.234C304.475 140.762 303.834 141.025 303.029 141.025C302.213 141.025 301.551 140.713 301.043 140.088C300.535 139.459 300.281 138.65 300.281 137.662V137.246C300.281 135.676 300.615 134.477 301.283 133.648C301.955 132.816 302.953 132.391 304.277 132.371H304.471ZM303.047 136.215C302.676 136.215 302.334 136.326 302.021 136.549C301.709 136.771 301.492 137.051 301.371 137.387V137.785C301.371 138.488 301.529 139.055 301.846 139.484C302.162 139.914 302.557 140.129 303.029 140.129C303.518 140.129 303.9 139.949 304.178 139.59C304.459 139.23 304.6 138.76 304.6 138.178C304.6 137.592 304.457 137.119 304.172 136.76C303.891 136.396 303.516 136.215 303.047 136.215ZM307.236 140.908V132.377H310.025C310.951 132.377 311.646 132.568 312.111 132.951C312.58 133.334 312.814 133.9 312.814 134.65C312.814 135.049 312.701 135.402 312.475 135.711C312.248 136.016 311.939 136.252 311.549 136.42C312.01 136.549 312.373 136.795 312.639 137.158C312.908 137.518 313.043 137.947 313.043 138.447C313.043 139.213 312.795 139.814 312.299 140.252C311.803 140.689 311.102 140.908 310.195 140.908H307.236ZM308.361 136.918V139.988H310.219C310.742 139.988 311.154 139.854 311.455 139.584C311.76 139.311 311.912 138.936 311.912 138.459C311.912 137.432 311.354 136.918 310.236 136.918H308.361ZM308.361 136.016H310.061C310.553 136.016 310.945 135.893 311.238 135.646C311.535 135.4 311.684 135.066 311.684 134.645C311.684 134.176 311.547 133.836 311.273 133.625C311 133.41 310.584 133.303 310.025 133.303H308.361V136.016Z" fill="black"/>
<path d="M375.482 138.506H373.936L373.467 140.908H372.629L373.098 138.506H371.697V137.703H373.25L373.654 135.629H372.143V134.814H373.812L374.293 132.377H375.131L374.65 134.814H376.197L376.678 132.377H377.521L377.041 134.814H378.236V135.629H376.883L376.479 137.703H377.797V138.506H376.326L375.857 140.908H375.014L375.482 138.506ZM374.088 137.703H375.635L376.039 135.629H374.492L374.088 137.703ZM385.66 138.201C385.555 139.104 385.221 139.801 384.658 140.293C384.1 140.781 383.355 141.025 382.426 141.025C381.418 141.025 380.609 140.664 380 139.941C379.395 139.219 379.092 138.252 379.092 137.041V136.221C379.092 135.428 379.232 134.73 379.514 134.129C379.799 133.527 380.201 133.066 380.721 132.746C381.24 132.422 381.842 132.26 382.525 132.26C383.432 132.26 384.158 132.514 384.705 133.021C385.252 133.525 385.57 134.225 385.66 135.119H384.529C384.432 134.439 384.219 133.947 383.891 133.643C383.566 133.338 383.111 133.186 382.525 133.186C381.807 133.186 381.242 133.451 380.832 133.982C380.426 134.514 380.223 135.27 380.223 136.25V137.076C380.223 138.002 380.416 138.738 380.803 139.285C381.189 139.832 381.73 140.105 382.426 140.105C383.051 140.105 383.529 139.965 383.861 139.684C384.197 139.398 384.42 138.904 384.529 138.201H385.66ZM392.27 137.27C392.27 138.539 392.053 139.482 391.619 140.1C391.186 140.717 390.508 141.025 389.586 141.025C388.676 141.025 388.002 140.725 387.564 140.123C387.127 139.518 386.9 138.615 386.885 137.416V135.969C386.885 134.715 387.102 133.783 387.535 133.174C387.969 132.564 388.648 132.26 389.574 132.26C390.492 132.26 391.168 132.555 391.602 133.145C392.035 133.73 392.258 134.637 392.27 135.863V137.27ZM391.186 135.787C391.186 134.869 391.057 134.201 390.799 133.783C390.541 133.361 390.133 133.15 389.574 133.15C389.02 133.15 388.615 133.359 388.361 133.777C388.107 134.195 387.977 134.838 387.969 135.705V137.439C387.969 138.361 388.102 139.043 388.367 139.484C388.637 139.922 389.043 140.141 389.586 140.141C390.121 140.141 390.518 139.934 390.775 139.52C391.037 139.105 391.174 138.453 391.186 137.562V135.787ZM400.215 138.201C400.109 139.104 399.775 139.801 399.213 140.293C398.654 140.781 397.91 141.025 396.98 141.025C395.973 141.025 395.164 140.664 394.555 139.941C393.949 139.219 393.646 138.252 393.646 137.041V136.221C393.646 135.428 393.787 134.73 394.068 134.129C394.354 133.527 394.756 133.066 395.275 132.746C395.795 132.422 396.396 132.26 397.08 132.26C397.986 132.26 398.713 132.514 399.26 133.021C399.807 133.525 400.125 134.225 400.215 135.119H399.084C398.986 134.439 398.773 133.947 398.445 133.643C398.121 133.338 397.666 133.186 397.08 133.186C396.361 133.186 395.797 133.451 395.387 133.982C394.98 134.514 394.777 135.27 394.777 136.25V137.076C394.777 138.002 394.971 138.738 395.357 139.285C395.744 139.832 396.285 140.105 396.98 140.105C397.605 140.105 398.084 139.965 398.416 139.684C398.752 139.398 398.975 138.904 399.084 138.201H400.215ZM406.824 137.27C406.824 138.539 406.607 139.482 406.174 140.1C405.74 140.717 405.062 141.025 404.141 141.025C403.23 141.025 402.557 140.725 402.119 140.123C401.682 139.518 401.455 138.615 401.439 137.416V135.969C401.439 134.715 401.656 133.783 402.09 133.174C402.523 132.564 403.203 132.26 404.129 132.26C405.047 132.26 405.723 132.555 406.156 133.145C406.59 133.73 406.812 134.637 406.824 135.863V137.27ZM405.74 135.787C405.74 134.869 405.611 134.201 405.354 133.783C405.096 133.361 404.688 133.15 404.129 133.15C403.574 133.15 403.17 133.359 402.916 133.777C402.662 134.195 402.531 134.838 402.523 135.705V137.439C402.523 138.361 402.656 139.043 402.922 139.484C403.191 139.922 403.598 140.141 404.141 140.141C404.676 140.141 405.072 139.934 405.33 139.52C405.592 139.105 405.729 138.453 405.74 137.562V135.787ZM414.77 138.201C414.664 139.104 414.33 139.801 413.768 140.293C413.209 140.781 412.465 141.025 411.535 141.025C410.527 141.025 409.719 140.664 409.109 139.941C408.504 139.219 408.201 138.252 408.201 137.041V136.221C408.201 135.428 408.342 134.73 408.623 134.129C408.908 133.527 409.311 133.066 409.83 132.746C410.35 132.422 410.951 132.26 411.635 132.26C412.541 132.26 413.268 132.514 413.814 133.021C414.361 133.525 414.68 134.225 414.77 135.119H413.639C413.541 134.439 413.328 133.947 413 133.643C412.676 133.338 412.221 133.186 411.635 133.186C410.916 133.186 410.352 133.451 409.941 133.982C409.535 134.514 409.332 135.27 409.332 136.25V137.076C409.332 138.002 409.525 138.738 409.912 139.285C410.299 139.832 410.84 140.105 411.535 140.105C412.16 140.105 412.639 139.965 412.971 139.684C413.307 139.398 413.529 138.904 413.639 138.201H414.77ZM421.379 137.27C421.379 138.539 421.162 139.482 420.729 140.1C420.295 140.717 419.617 141.025 418.695 141.025C417.785 141.025 417.111 140.725 416.674 140.123C416.236 139.518 416.01 138.615 415.994 137.416V135.969C415.994 134.715 416.211 133.783 416.645 133.174C417.078 132.564 417.758 132.26 418.684 132.26C419.602 132.26 420.277 132.555 420.711 133.145C421.145 133.73 421.367 134.637 421.379 135.863V137.27ZM420.295 135.787C420.295 134.869 420.166 134.201 419.908 133.783C419.65 133.361 419.242 133.15 418.684 133.15C418.129 133.15 417.725 133.359 417.471 133.777C417.217 134.195 417.086 134.838 417.078 135.705V137.439C417.078 138.361 417.211 139.043 417.477 139.484C417.746 139.922 418.152 140.141 418.695 140.141C419.23 140.141 419.627 139.934 419.885 139.52C420.146 139.105 420.283 138.453 420.295 137.562V135.787Z" fill="black"/>
<path d="M54.4824 138.506H52.9355L52.4668 140.908H51.6289L52.0977 138.506H50.6973V137.703H52.25L52.6543 135.629H51.1426V134.814H52.8125L53.293 132.377H54.1309L53.6504 134.814H55.1973L55.6777 132.377H56.5215L56.041 134.814H57.2363V135.629H55.8828L55.4785 137.703H56.7969V138.506H55.3262L54.8574 140.908H54.0137L54.4824 138.506ZM53.0879 137.703H54.6348L55.0391 135.629H53.4922L53.0879 137.703ZM63.4531 137.27C63.4531 138.539 63.2363 139.482 62.8027 140.1C62.3691 140.717 61.6914 141.025 60.7695 141.025C59.8594 141.025 59.1855 140.725 58.748 140.123C58.3105 139.518 58.084 138.615 58.0684 137.416V135.969C58.0684 134.715 58.2852 133.783 58.7188 133.174C59.1523 132.564 59.832 132.26 60.7578 132.26C61.6758 132.26 62.3516 132.555 62.7852 133.145C63.2188 133.73 63.4414 134.637 63.4531 135.863V137.27ZM62.3691 135.787C62.3691 134.869 62.2402 134.201 61.9824 133.783C61.7246 133.361 61.3164 133.15 60.7578 133.15C60.2031 133.15 59.7988 133.359 59.5449 133.777C59.291 134.195 59.1602 134.838 59.1523 135.705V137.439C59.1523 138.361 59.2852 139.043 59.5508 139.484C59.8203 139.922 60.2266 140.141 60.7695 140.141C61.3047 140.141 61.7012 139.934 61.959 139.52C62.2207 139.105 62.3574 138.453 62.3691 137.562V135.787ZM70.1914 137.27C70.1914 138.539 69.9746 139.482 69.541 140.1C69.1074 140.717 68.4297 141.025 67.5078 141.025C66.5977 141.025 65.9238 140.725 65.4863 140.123C65.0488 139.518 64.8223 138.615 64.8066 137.416V135.969C64.8066 134.715 65.0234 133.783 65.457 133.174C65.8906 132.564 66.5703 132.26 67.4961 132.26C68.4141 132.26 69.0898 132.555 69.5234 133.145C69.957 133.73 70.1797 134.637 70.1914 135.863V137.27ZM69.1074 135.787C69.1074 134.869 68.9785 134.201 68.7207 133.783C68.4629 133.361 68.0547 133.15 67.4961 133.15C66.9414 133.15 66.5371 133.359 66.2832 133.777C66.0293 134.195 65.8984 134.838 65.8906 135.705V137.439C65.8906 138.361 66.0234 139.043 66.2891 139.484C66.5586 139.922 66.9648 140.141 67.5078 140.141C68.043 140.141 68.4395 139.934 68.6973 139.52C68.959 139.105 69.0957 138.453 69.1074 137.562V135.787ZM76.7539 134.604C76.7539 135.029 76.6406 135.408 76.4141 135.74C76.1914 136.072 75.8887 136.332 75.5059 136.52C75.9512 136.711 76.3027 136.99 76.5605 137.357C76.8223 137.725 76.9531 138.141 76.9531 138.605C76.9531 139.344 76.7031 139.932 76.2031 140.369C75.707 140.807 75.0527 141.025 74.2402 141.025C73.4199 141.025 72.7617 140.807 72.2656 140.369C71.7734 139.928 71.5273 139.34 71.5273 138.605C71.5273 138.145 71.6523 137.729 71.9023 137.357C72.1562 136.986 72.5059 136.705 72.9512 136.514C72.5723 136.326 72.2734 136.066 72.0547 135.734C71.8359 135.402 71.7266 135.025 71.7266 134.604C71.7266 133.885 71.957 133.314 72.418 132.893C72.8789 132.471 73.4863 132.26 74.2402 132.26C74.9902 132.26 75.5957 132.471 76.0566 132.893C76.5215 133.314 76.7539 133.885 76.7539 134.604ZM75.8691 138.582C75.8691 138.105 75.7168 137.717 75.4121 137.416C75.1113 137.115 74.7168 136.965 74.2285 136.965C73.7402 136.965 73.3477 137.113 73.0508 137.41C72.7578 137.707 72.6113 138.098 72.6113 138.582C72.6113 139.066 72.7539 139.447 73.0391 139.725C73.3281 140.002 73.7285 140.141 74.2402 140.141C74.748 140.141 75.1465 140.002 75.4355 139.725C75.7246 139.443 75.8691 139.062 75.8691 138.582ZM74.2402 133.15C73.8145 133.15 73.4688 133.283 73.2031 133.549C72.9414 133.811 72.8105 134.168 72.8105 134.621C72.8105 135.055 72.9395 135.406 73.1973 135.676C73.459 135.941 73.8066 136.074 74.2402 136.074C74.6738 136.074 75.0195 135.941 75.2773 135.676C75.5391 135.406 75.6699 135.055 75.6699 134.621C75.6699 134.188 75.5352 133.834 75.2656 133.561C74.9961 133.287 74.6543 133.15 74.2402 133.15ZM83.668 137.27C83.668 138.539 83.4512 139.482 83.0176 140.1C82.584 140.717 81.9062 141.025 80.9844 141.025C80.0742 141.025 79.4004 140.725 78.9629 140.123C78.5254 139.518 78.2988 138.615 78.2832 137.416V135.969C78.2832 134.715 78.5 133.783 78.9336 133.174C79.3672 132.564 80.0469 132.26 80.9727 132.26C81.8906 132.26 82.5664 132.555 83 133.145C83.4336 133.73 83.6562 134.637 83.668 135.863V137.27ZM82.584 135.787C82.584 134.869 82.4551 134.201 82.1973 133.783C81.9395 133.361 81.5312 133.15 80.9727 133.15C80.418 133.15 80.0137 133.359 79.7598 133.777C79.5059 134.195 79.375 134.838 79.3672 135.705V137.439C79.3672 138.361 79.5 139.043 79.7656 139.484C80.0352 139.922 80.4414 140.141 80.9844 140.141C81.5195 140.141 81.916 139.934 82.1738 139.52C82.4355 139.105 82.5723 138.453 82.584 137.562V135.787ZM90.2305 134.604C90.2305 135.029 90.1172 135.408 89.8906 135.74C89.668 136.072 89.3652 136.332 88.9824 136.52C89.4277 136.711 89.7793 136.99 90.0371 137.357C90.2988 137.725 90.4297 138.141 90.4297 138.605C90.4297 139.344 90.1797 139.932 89.6797 140.369C89.1836 140.807 88.5293 141.025 87.7168 141.025C86.8965 141.025 86.2383 140.807 85.7422 140.369C85.25 139.928 85.0039 139.34 85.0039 138.605C85.0039 138.145 85.1289 137.729 85.3789 137.357C85.6328 136.986 85.9824 136.705 86.4277 136.514C86.0488 136.326 85.75 136.066 85.5312 135.734C85.3125 135.402 85.2031 135.025 85.2031 134.604C85.2031 133.885 85.4336 133.314 85.8945 132.893C86.3555 132.471 86.9629 132.26 87.7168 132.26C88.4668 132.26 89.0723 132.471 89.5332 132.893C89.998 133.314 90.2305 133.885 90.2305 134.604ZM89.3457 138.582C89.3457 138.105 89.1934 137.717 88.8887 137.416C88.5879 137.115 88.1934 136.965 87.7051 136.965C87.2168 136.965 86.8242 137.113 86.5273 137.41C86.2344 137.707 86.0879 138.098 86.0879 138.582C86.0879 139.066 86.2305 139.447 86.5156 139.725C86.8047 140.002 87.2051 140.141 87.7168 140.141C88.2246 140.141 88.623 140.002 88.9121 139.725C89.2012 139.443 89.3457 139.062 89.3457 138.582ZM87.7168 133.15C87.291 133.15 86.9453 133.283 86.6797 133.549C86.418 133.811 86.2871 134.168 86.2871 134.621C86.2871 135.055 86.416 135.406 86.6738 135.676C86.9355 135.941 87.2832 136.074 87.7168 136.074C88.1504 136.074 88.4961 135.941 88.7539 135.676C89.0156 135.406 89.1465 135.055 89.1465 134.621C89.1465 134.188 89.0117 133.834 88.7422 133.561C88.4727 133.287 88.1309 133.15 87.7168 133.15ZM97.1445 137.27C97.1445 138.539 96.9277 139.482 96.4941 140.1C96.0605 140.717 95.3828 141.025 94.4609 141.025C93.5508 141.025 92.877 140.725 92.4395 140.123C92.002 139.518 91.7754 138.615 91.7598 137.416V135.969C91.7598 134.715 91.9766 133.783 92.4102 133.174C92.8438 132.564 93.5234 132.26 94.4492 132.26C95.3672 132.26 96.043 132.555 96.4766 133.145C96.9102 133.73 97.1328 134.637 97.1445 135.863V137.27ZM96.0605 135.787C96.0605 134.869 95.9316 134.201 95.6738 133.783C95.416 133.361 95.0078 133.15 94.4492 133.15C93.8945 133.15 93.4902 133.359 93.2363 133.777C92.9824 134.195 92.8516 134.838 92.8438 135.705V137.439C92.8438 138.361 92.9766 139.043 93.2422 139.484C93.5117 139.922 93.918 140.141 94.4609 140.141C94.9961 140.141 95.3926 139.934 95.6504 139.52C95.9121 139.105 96.0488 138.453 96.0605 137.562V135.787Z" fill="black"/>
<g filter="url(#filter0_d)">
<rect x="26" y="23" width="96" height="96" rx="48" fill="#008080"/>
</g>
<g filter="url(#filter1_d)">
<rect x="241" y="23" width="96" height="96" rx="48" fill="#8C0E6B"/>
</g>
<g filter="url(#filter2_d)">
<rect x="133" y="23" width="96" height="96" rx="48" fill="#07468C"/>
</g>
<g filter="url(#filter3_d)">
<rect x="349" y="23" width="96" height="96" rx="48" fill="#C0C0C0"/>
</g>
<defs>
<filter id="filter0_d" x="22" y="23" width="104" height="104" filterUnits="userSpaceOnUse" color-interpolation-filters="sRGB">
<feFlood flood-opacity="0" result="BackgroundImageFix"/>
<feColorMatrix in="SourceAlpha" type="matrix" values="0 0 0 0 0 0 0 0 0 0 0 0 0 0 0 0 0 0 127 0"/>
<feOffset dy="4"/>
<feGaussianBlur stdDeviation="2"/>
<feColorMatrix type="matrix" values="0 0 0 0 0 0 0 0 0 0 0 0 0 0 0 0 0 0 0.25 0"/>
<feBlend mode="normal" in2="BackgroundImageFix" result="effect1_dropShadow"/>
<feBlend mode="normal" in="SourceGraphic" in2="effect1_dropShadow" result="shape"/>
</filter>
<filter id="filter1_d" x="237" y="23" width="104" height="104" filterUnits="userSpaceOnUse" color-interpolation-filters="sRGB">
<feFlood flood-opacity="0" result="BackgroundImageFix"/>
<feColorMatrix in="SourceAlpha" type="matrix" values="0 0 0 0 0 0 0 0 0 0 0 0 0 0 0 0 0 0 127 0"/>
<feOffset dy="4"/>
<feGaussianBlur stdDeviation="2"/>
<feColorMatrix type="matrix" values="0 0 0 0 0 0 0 0 0 0 0 0 0 0 0 0 0 0 0.25 0"/>
<feBlend mode="normal" in2="BackgroundImageFix" result="effect1_dropShadow"/>
<feBlend mode="normal" in="SourceGraphic" in2="effect1_dropShadow" result="shape"/>
</filter>
<filter id="filter2_d" x="129" y="23" width="104" height="104" filterUnits="userSpaceOnUse" color-interpolation-filters="sRGB">
<feFlood flood-opacity="0" result="BackgroundImageFix"/>
<feColorMatrix in="SourceAlpha" type="matrix" values="0 0 0 0 0 0 0 0 0 0 0 0 0 0 0 0 0 0 127 0"/>
<feOffset dy="4"/>
<feGaussianBlur stdDeviation="2"/>
<feColorMatrix type="matrix" values="0 0 0 0 0 0 0 0 0 0 0 0 0 0 0 0 0 0 0.25 0"/>
<feBlend mode="normal" in2="BackgroundImageFix" result="effect1_dropShadow"/>
<feBlend mode="normal" in="SourceGraphic" in2="effect1_dropShadow" result="shape"/>
</filter>
<filter id="filter3_d" x="345" y="23" width="104" height="104" filterUnits="userSpaceOnUse" color-interpolation-filters="sRGB">
<feFlood flood-opacity="0" result="BackgroundImageFix"/>
<feColorMatrix in="SourceAlpha" type="matrix" values="0 0 0 0 0 0 0 0 0 0 0 0 0 0 0 0 0 0 127 0"/>
<feOffset dy="4"/>
<feGaussianBlur stdDeviation="2"/>
<feColorMatrix type="matrix" values="0 0 0 0 0 0 0 0 0 0 0 0 0 0 0 0 0 0 0.25 0"/>
<feBlend mode="normal" in2="BackgroundImageFix" result="effect1_dropShadow"/>
<feBlend mode="normal" in="SourceGraphic" in2="effect1_dropShadow" result="shape"/>
</filter>
</defs>
</svg>
