<svg width="63" height="63" viewBox="0 0 63 63" fill="none" xmlns="http://www.w3.org/2000/svg">
<path d="M57.2671 13.1197H54.5513H51.8142H49.0984H46.362H43.6462H40.9091H38.1932V10.4985H40.9091H43.6462H46.362V7.87048H49.0984V5.24926V2.62122V0H46.362H43.6462H40.9091H38.1932H35.4561V2.62122H32.741V5.24926H30.0039H27.2668V2.62122H24.551V0H21.8146H19.0987H16.3616H13.6458H10.9094V2.62122V5.24926V7.87048H13.6458V10.4985H16.3616H19.0987H21.8146V13.1197H19.0987H16.3616H13.6458H10.9094H8.19358H5.45648H2.74065H0V15.7478V18.369V20.997V23.6183V26.2463V28.8675V31.5024H2.7371V34.1304V36.7517V39.3804V42.0016V44.6296V47.2509V49.8789V52.5001V55.1288V57.7501V60.3788V63H5.45293H8.19004H10.9059H13.6423H16.3581H19.0952H21.811H24.5474H27.2633H30.0004H32.7375H35.4526H38.1897H40.9055H43.6426H46.3584H49.0948H51.8107H54.5478H57.2636V60.3788V57.7501V55.1288V52.5001V49.8789V47.2509V44.6296V42.0016V39.3804V36.7517V34.1304V31.5024H60V28.8675V26.2463V23.6183V20.997V18.369V15.7478V13.1197H57.2671ZM21.8124 7.87048H19.0966H16.3595V5.24926H13.6437V2.62122H16.3595H19.0966H21.8124V5.24926H24.5488V7.87048H27.2647H30.0018H32.7389H35.454V5.24926H38.1911V2.62122H40.9069H43.644H46.3599V5.24926H43.644V7.87048H40.9069H38.1911H35.454V10.4985H32.7389V13.1197H30.0018H27.2647V10.4985H24.5488V7.87048H21.8124ZM25.5682 15.7478H27.2654V26.2463V28.8675L24.5488 31.501L24.5481 15.7478H25.5682ZM2.73781 26.2463V23.6183V20.997V18.369V15.7478H5.45364H8.19075H10.9066H13.643H16.3588H19.0959H21.8117H24.5481H2.73781V22.7157V25.337L2.74065 28.8675H24.5487L24.5488 31.501H21.8124H19.0966H16.3595H13.6437H10.9073H8.19146H5.45436L5.45364 28.8675H2.74065L2.73781 26.2463ZM21.8124 60.3774H19.0966H16.3595H13.6437H10.9073H8.19146H5.45435V55.1275V52.4987V49.8775V47.2495V44.6283V42.0002V39.379V36.7503L5.45436 31.501H8.19146H10.9073H13.6437H16.3595H19.0966H21.8124H24.5488H5.45436L5.45435 36.7503V39.379V42.0002V44.6283V47.2495V49.8775V52.4987V55.1275V60.3774H24.5488H21.8124ZM27.2654 60.3774H24.5488V57.7487V55.1275V52.4987V49.8775V47.2495V44.6283V42.0002V39.379V36.7503V34.1291V31.501L27.2654 28.8675V34.1297V36.751V39.379V42.0002V44.6283V47.2495V60.3774ZM35.4661 34.1291V36.7503V39.379V42.0002V44.6283V47.2495V49.8775V52.4987V55.1275V57.7487L35.4561 60.3788H51.8142H49.0984H46.362H43.6462H40.9091H38.1932H35.4561L32.7396 60.3774V47.2495V44.6208V41.9995V39.3715V36.7503V34.1222V31.4995L35.4607 31.499L35.4554 28.8689H38.1607H46.3636H47.7273L48.4091 28.8675H54.5455H57.2671L47.7273 28.8689H35.4554L35.4661 34.1291ZM35.4561 17.8043V20.5435V26.2463L35.4653 28.8675L47.7273 28.8689L57.2671 28.8675H54.5455V31.499H51.8182H49.0977H46.3636L43.6364 31.5024L40.9091 31.5L38.1818 31.499H35.4607L27.2654 31.4986L27.2727 28.7609H32.7389V23.6183V20.997L32.7396 18.369V15.7478H38.1932H40.9091H43.6462H46.362H49.0984H51.8142H54.5513H35.4664L35.4561 17.8043Z" fill="black"/>
</svg>
