<svg width="116" height="63" viewBox="0 0 116 63" fill="none" xmlns="http://www.w3.org/2000/svg">
<g clip-path="url(#clip0)">
<path d="M76 58.9999V62.9999H112V58.9999H116V43.9999H112V39.9999H108V35.9999H104V39.9999H84V35.9999L80 36.0145V39.9999H76V43.9999H72V58.9999H76Z" fill="black"/>
<path d="M88 32V36H100V32H104V28H108V16H104V12H84V16H80V28H84V32H88Z" fill="black"/>
<path d="M48 39.9999V47.9999V51.9999H68V39.9999H72V35.9999H76V27.9999H72V23.9999H68V27.9999H48V23.9999L44 24.0145V27.9999H40V31.9999V35.9999H44V39.9999H48Z" fill="black"/>
<path d="M51.999 20V24H63.999V20H67.999V16H71.999V4H67.999V0H47.999V4H43.999V16H47.999V20H51.999Z" fill="black"/>
<path d="M4 58.9999V62.9999H40V54.9999H44V43.9999H40V39.9999H36V35.9999H32V39.9999H12V35.9999L8 36.0145V39.9999H4V43.9999H0V54.9999H4V58.9999Z" fill="black"/>
<path d="M16 32V36H28V32H32V28H36V16H32V12H12V16H8V28H12V32H16Z" fill="black"/>
</g>
<defs>
<clipPath id="clip0">
<rect width="116" height="63" fill="white"/>
</clipPath>
</defs>
</svg>
