<svg width="165" height="32" viewBox="0 0 165 32" fill="none" xmlns="http://www.w3.org/2000/svg">
<g clip-path="url(#clip0)">
<path d="M15.8433 31.6846L148.781 31.6846C157.53 31.6846 164.623 24.5918 164.623 15.8423V15.8422C164.623 7.09274 157.53 -9.91821e-05 148.781 -9.91821e-05L15.8433 -9.91821e-05C7.09387 -9.91821e-05 0.00105286 7.09274 0.00105286 15.8423C0.00105286 24.5918 7.09387 31.6846 15.8433 31.6846Z" fill="#9F9F9F"/>
<path d="M17.2199 3.444C10.3725 3.444 4.82156 8.99491 4.82156 15.8423C4.82156 22.6897 10.3725 28.2406 17.2199 28.2406C24.0673 28.2406 29.6182 22.6897 29.6182 15.8423C29.6182 8.99491 24.0673 3.444 17.2199 3.444Z" fill="#D9D9D9"/>
<path d="M83.6889 3.444C76.6513 3.444 70.9462 8.99491 70.9462 15.8423C70.9462 22.6897 76.6513 28.2406 83.6889 28.2406C90.7265 28.2406 96.4316 22.6897 96.4316 15.8423C96.4316 8.99491 90.7265 3.444 83.6889 3.444Z" fill="#D9D9D9"/>
<path d="M148.78 3.444C141.933 3.444 136.382 8.99491 136.382 15.8423C136.382 22.6897 141.933 28.2406 148.78 28.2406C155.628 28.2406 161.179 22.6897 161.179 15.8423C161.179 8.99491 155.628 3.444 148.78 3.444Z" fill="#E1261C"/>
</g>
<defs>
<clipPath id="clip0">
<rect width="165" height="32" fill="white"/>
</clipPath>
</defs>
</svg>
