<svg width="165" height="32" viewBox="0 0 165 32" fill="none" xmlns="http://www.w3.org/2000/svg">
<path d="M148.78 0H15.8423C7.09284 0 0 7.09284 0 15.8423V15.8424C0 24.5919 7.09284 31.6847 15.8423 31.6847H148.78C157.529 31.6847 164.622 24.5919 164.622 15.8423C164.622 7.09284 157.529 0 148.78 0Z" fill="#9F9F9F"/>
<path d="M147.403 28.2406C154.251 28.2406 159.801 22.6897 159.801 15.8423C159.801 8.99491 154.251 3.444 147.403 3.444C140.556 3.444 135.005 8.99491 135.005 15.8423C135.005 22.6897 140.556 28.2406 147.403 28.2406Z" fill="#D9D9D9"/>
<path d="M80.9341 28.2406C87.9717 28.2406 93.6768 22.6897 93.6768 15.8423C93.6768 8.99491 87.9717 3.444 80.9341 3.444C73.8965 3.444 68.1914 8.99491 68.1914 15.8423C68.1914 22.6897 73.8965 28.2406 80.9341 28.2406Z" fill="#00796B"/>
<path d="M15.8426 28.2406C22.69 28.2406 28.2409 22.6897 28.2409 15.8423C28.2409 8.99491 22.69 3.444 15.8426 3.444C8.99524 3.444 3.44434 8.99491 3.44434 15.8423C3.44434 22.6897 8.99524 28.2406 15.8426 28.2406Z" fill="#D9D9D9"/>
</svg>
