<svg width="201" height="162" viewBox="0 0 201 162" fill="none" xmlns="http://www.w3.org/2000/svg">
<path d="M38.6977 82.7589C38.2268 83.3709 37.304 83.3709 36.833 82.7589L26.4181 69.2244C25.8228 68.4508 26.3743 67.3306 27.3506 67.3306H48.1802C49.1563 67.3306 49.7079 68.4508 49.1126 69.2244L38.6977 82.7589Z" fill="#008080"/>
<path d="M32.1758 67.5286H43.1328V53.3945H32.1758V67.5286Z" fill="#008080"/>
<path d="M37.6533 49.2124C34.6276 49.2124 32.1748 51.0527 32.1748 53.3229C32.1748 55.593 34.6276 57.4333 37.6533 57.4333C40.679 57.4333 43.1318 55.593 43.1318 53.3229C43.1318 51.0527 40.679 49.2124 37.6533 49.2124Z" fill="#008080"/>
<path d="M32.1758 53.395H37.7504V49.2124H32.1758V53.395Z" fill="#008080"/>
<path fill-rule="evenodd" clip-rule="evenodd" d="M38.583 47.0002H29.886V64.6927H6.25755C2.83234 64.6927 0.0556638 61.6983 0.0556641 58.0047C0.0556644 54.311 2.83234 51.3167 6.25755 51.3167H9.83274C8.36535 50.0935 7.42041 48.1768 7.42041 46.022C7.42041 42.3283 10.1971 39.334 13.6223 39.334H17.9344C17.4994 38.4462 17.2551 37.4477 17.2551 36.3922C17.2551 32.6986 20.2462 29.7043 23.9358 29.7043H25.919C25.4387 28.8081 25.1687 27.7978 25.1687 26.729C25.1687 23.0353 28.3941 20.041 32.3728 20.041H39.577C43.5557 20.041 46.7811 23.0353 46.7811 26.729C46.7811 27.7978 46.511 28.8081 46.0308 29.7043H48.014C51.7036 29.7043 54.6947 32.6986 54.6947 36.3922C54.6947 37.4479 54.4503 38.4462 54.0154 39.334H58.1983C61.6235 39.334 64.4002 42.3283 64.4002 46.022C64.4002 48.1768 63.4553 50.0935 61.9879 51.3167H65.6922C69.1174 51.3167 71.8941 54.311 71.8941 58.0047C71.8941 61.6983 69.1174 64.6927 65.6922 64.6927H45.4197V52.2985H45.4161C45.4186 52.2425 45.4197 52.1861 45.4197 52.1296C45.4197 49.3533 42.4798 47.0921 38.8083 47.0029V47.0002H38.583Z" fill="#07468C"/>
<path fill-rule="evenodd" clip-rule="evenodd" d="M131.75 70.4675C125.685 74.1229 119.727 75.889 116.93 75.168C109.916 73.3601 109.271 47.7014 114.698 37.5859C120.125 27.4704 148.024 23.0614 149.43 43.1034C149.918 50.0593 146.997 56.267 142.682 61.3324L150.42 97.3977H127.943L131.75 70.4675Z" fill="#B28B67"/>
<path fill-rule="evenodd" clip-rule="evenodd" d="M159.23 36.4323C159.956 35.7129 160.352 34.686 160.694 33.711C161.05 32.6981 161.396 31.6748 161.632 30.6205C162.104 28.5141 162.108 26.0916 160.606 24.456C159.4 23.1444 157.592 22.5561 155.923 22.4282C154.811 22.3429 153.669 22.4986 152.604 22.849C151.546 23.1966 150.635 23.8894 149.609 24.3194C149.57 22.0494 149.181 19.6742 148.03 17.7359C146.922 15.871 145.155 14.8245 143.143 14.5477C141.077 14.2635 139.038 14.7468 137.189 15.7466C136.726 15.997 136.268 16.2594 135.829 16.5563C135.461 16.8049 135.079 17.1043 134.648 17.2054C134.167 17.3183 133.929 17.0407 133.617 16.69C133.251 16.2788 132.838 15.9167 132.401 15.5957C130.47 14.1764 127.937 13.5928 125.7 14.4436C124.669 14.8355 123.667 15.5012 122.968 16.4184C122.345 17.2361 121.9 18.5331 121.04 19.1027C120.675 19.3446 120.417 19.0242 120.084 18.7874C119.585 18.4316 119.109 18.039 118.604 17.6929C117.894 17.2066 117.125 16.8429 116.302 16.6525C115.098 16.3738 113.433 16.4391 113.088 18.017C112.959 18.6097 113.058 19.2436 113.1 19.8407C113.157 20.6607 113.217 21.4804 113.288 22.2991C113.342 22.9208 113.411 23.5212 113.528 24.1317C113.591 24.4571 113.787 25.0638 113.647 25.3897C113.473 25.797 112.668 25.5654 112.324 25.5796C111.645 25.6076 110.963 25.7267 110.335 26.0169C109.848 26.2419 109.336 26.5727 109.131 27.1305C109.005 27.4732 109.038 27.8252 109.098 28.1777C109.169 28.6008 109.087 28.8252 109.034 29.2521C108.122 28.8029 104.961 27.8049 104.563 29.4397C104.431 29.984 104.732 30.599 104.962 31.0581C105.366 31.8632 105.895 32.5991 106.436 33.3009C107.564 34.765 108.911 36.0278 110.36 37.1078C108.662 37.8625 108.219 40.0887 109.689 41.4151C110.338 42.0007 111.21 42.1311 112.029 42.0936C112.328 42.0799 112.76 41.9647 112.996 42.0169C113.123 42.045 113.259 42.1525 113.435 42.1645C114.59 42.2436 115.894 41.9653 117.024 41.7089C119.036 41.2521 120.941 40.2987 122.497 38.8466C122.896 38.4741 123.226 38.2597 123.763 38.2652C124.234 38.27 124.696 38.399 125.166 38.411C126.41 38.4427 127.532 37.8344 128.688 37.4295C128.758 38.9905 129.203 40.7098 129.842 42.1141C130.362 43.2593 131.45 43.4257 132.518 43.5262C135.935 43.8477 139.364 43.4889 142.785 43.4937C139.474 44.2423 136.051 44.5508 132.769 45.4317C131.285 45.8298 132.418 46.8299 133.052 47.5231C134.097 48.6647 134.874 50.0791 135.413 51.5692C137.033 49.4573 139.896 48.0658 142.433 48.7146C145.237 49.4313 147.21 53.2222 145.418 55.9475C144.377 57.5295 142.498 58.1403 140.934 58.82C142.154 60.0883 142.449 61.9615 143.183 63.5394C143.545 64.3175 144.054 65.1973 144.864 65.4685C145.163 65.5689 145.515 65.5774 145.751 65.8217C146.044 66.1241 146.114 66.4622 146.487 66.7221C147.98 67.7595 150.31 67.6795 151.633 66.3258C152.829 65.1014 152.518 63.164 151.519 61.9228C153.109 61.26 156.006 60.4076 155.374 57.9304C158.819 57.7017 167.184 52.1139 162.56 48.0307C165.098 46.5964 167.429 43.0912 165.799 40.0013C164.544 37.622 161.625 36.5585 159.23 36.4323Z" fill="#473118"/>
<path fill-rule="evenodd" clip-rule="evenodd" d="M76.1079 98.9806L108.614 116.784L96.6103 129.668L72.9904 108.042C60.5476 104.613 54.8573 102.104 55.9197 100.516C56.8154 99.1771 58.26 99.2236 59.5907 99.2665C60.6272 99.2998 61.5947 99.331 62.1796 98.7032C63.5153 97.2696 60.9668 92.2569 58.345 87.6035C55.7232 82.95 58.5267 83.3551 60.1298 84.0244C65.3763 87.576 70.7023 92.5614 76.1079 98.9806ZM43.4249 123.962L57.7036 131.806L56.8905 146.135C56.8905 146.135 47.6426 139.46 39.6864 137.242C29.5419 134.413 25.4375 132.253 20.4803 125.937C17.8279 122.557 15.5768 115.763 18.1015 113.551C19.0699 112.702 22.6783 114.707 26.36 116.753C29.166 118.312 32.0145 119.895 33.7695 120.256C36.132 120.743 35.8554 117.681 35.6344 115.234C35.4758 113.478 35.3458 112.039 36.2401 112.455C40.4196 112.526 43.4249 123.962 43.4249 123.962Z" fill="#997659"/>
<path fill-rule="evenodd" clip-rule="evenodd" d="M124.447 112.818C113.062 112.698 97.878 110.293 81.6776 100.01L75.3154 114.198C86.49 125.288 102.203 134.4 115.942 134.014C126.769 133.71 132.302 120.614 124.447 112.818Z" fill="#4F4F4F"/>
<path fill-rule="evenodd" clip-rule="evenodd" d="M126.274 76.7949V76.7959H123.688C122.527 91.7216 117.568 107.882 112.578 124.146C111.413 127.944 110.246 131.747 109.125 135.542C90.2398 139.829 48.306 124.907 48.306 124.907C48.306 124.907 37.7199 146.808 38.5186 156.134C42.0282 157.967 45.4656 159.654 48.8304 161.201H177.956C177.928 161.132 177.9 161.062 177.872 160.993C174.816 153.47 171.914 146.323 171.908 138.041C171.89 113.921 152.523 76.7959 149.674 76.7959H148.857L148.856 76.7949H126.274Z" fill="#545454"/>
</svg>
