<svg width="293" height="65" viewBox="0 0 293 65" fill="none" xmlns="http://www.w3.org/2000/svg">
<path fill-rule="evenodd" clip-rule="evenodd" d="M28.5249 0.472251C28.0401 -0.157416 27.0899 -0.157417 26.6051 0.47225L17.689 12.0523C17.0762 12.8483 17.644 14.0009 18.6489 14.0009H22.7973V26.3751H22.7981C22.7976 26.3964 22.7973 26.4178 22.7973 26.4391C22.7973 28.4336 24.9305 30.0543 27.5792 30.0885V30.0891H32.532V26.4431V26.4391V26.4353V26.3751V14.0009H36.4812C37.486 14.0009 38.0538 12.8483 37.441 12.0523L28.5249 0.472251ZM40.4798 48.5077C39.995 49.1373 39.045 49.1373 38.5602 48.5077L29.6441 36.9275C29.0311 36.1315 29.5989 34.979 30.6039 34.979H34.5529V22.6047V22.5452C34.5529 22.5437 34.5529 22.5422 34.5529 22.5407C34.5529 22.5391 34.5529 22.5377 34.5529 22.5361V18.8909H39.4082C39.4122 18.8909 39.4163 18.8909 39.4203 18.8909C39.4243 18.8909 39.4284 18.8909 39.4324 18.8909H39.5057V18.8914C42.1544 18.9255 44.2877 20.5463 44.2877 22.5407C44.2877 22.562 44.2875 22.5834 44.287 22.6047H44.2877V34.979H48.4361C49.4411 34.979 50.0089 36.1316 49.3959 36.9275L40.4798 48.5077Z" fill="#008080"/>
<path fill-rule="evenodd" clip-rule="evenodd" d="M6.38458 18.9414H20.8462V27.3929V27.4876H20.8475C20.9147 29.9593 23.6078 31.9475 26.9203 31.9475C27.1276 31.9475 27.3326 31.9397 27.5347 31.9245V31.9475H32.6106V33.1232H31.3007C31.213 33.1171 31.1244 33.1141 31.0351 33.1141C29.1019 33.1141 27.5347 34.5403 27.5347 36.2996C27.5347 36.7748 27.649 37.2255 27.8539 37.6307L27.8414 37.6385L27.8939 37.7069C28.051 37.9967 28.255 38.2615 28.497 38.4933L32.502 43.7157V43.7248H32.5089L36.5853 49.0402C37.1923 49.9858 38.3195 50.621 39.6099 50.621C40.808 50.621 41.8656 50.0733 42.4966 49.2378L42.5018 49.2412L51.1133 38.0121L51.1047 38.0066C51.4445 37.5157 51.6412 36.9343 51.6412 36.3112C51.6412 34.5519 50.074 33.1257 48.1407 33.1257H46.4129V21.7865H46.4096C46.4118 21.7368 46.4129 21.6868 46.4129 21.6365C46.4129 20.628 45.9757 19.6961 45.2357 18.9414H67.5702C71.0963 18.9414 73.9548 22.0221 73.9548 25.8225C73.9548 29.6227 71.0963 32.7035 67.5702 32.7035H63.8897C65.4003 33.9619 66.373 35.934 66.373 38.1509C66.373 41.9513 63.5146 45.0321 59.9886 45.0321H56.997C57.4447 45.9453 57.6961 46.9726 57.6961 48.0586C57.6961 51.8589 54.6171 54.9397 50.8187 54.9397H48.8773C49.3717 55.8617 49.6498 56.9012 49.6498 58.0008C49.6498 61.8011 46.3293 64.8819 42.2333 64.8819H34.8169C30.7209 64.8819 27.4005 61.8011 27.4005 58.0008C27.4005 56.9012 27.6785 55.8617 28.173 54.9397H26.0312C22.2329 54.9397 19.1538 51.8589 19.1538 48.0586C19.1538 46.9726 19.4052 45.9453 19.8531 45.0321H14.0992C10.5732 45.0321 7.71471 41.9513 7.71471 38.1509C7.71471 35.934 8.68749 33.9619 10.1981 32.7035H6.38459C2.85847 32.7035 0 29.6227 0 25.8225C0 22.0221 2.85847 18.9414 6.38458 18.9414ZM34.2209 34.9779H34.6385V34.9804H34.2223L34.2209 34.9779Z" fill="#07468C"/>
<path d="M126.104 43.2578C126.104 45.4225 125.542 47.3675 124.419 49.0928C123.312 50.818 121.685 52.1689 119.536 53.1455C117.388 54.1221 114.84 54.6104 111.895 54.6104C108.363 54.6104 105.449 53.943 103.154 52.6084C101.527 51.6481 100.2 50.3704 99.1748 48.7754C98.1657 47.1641 97.6611 45.6016 97.6611 44.0879C97.6611 43.209 97.9622 42.4603 98.5645 41.8418C99.1829 41.207 99.9642 40.8896 100.908 40.8896C101.673 40.8896 102.316 41.1338 102.837 41.6221C103.374 42.1104 103.83 42.8346 104.204 43.7949C104.66 44.9342 105.148 45.8864 105.669 46.6514C106.206 47.4163 106.955 48.0511 107.915 48.5557C108.875 49.0439 110.137 49.2881 111.699 49.2881C113.848 49.2881 115.589 48.7917 116.924 47.7988C118.275 46.7897 118.95 45.5365 118.95 44.0391C118.95 42.8509 118.584 41.8906 117.852 41.1582C117.135 40.4095 116.2 39.8398 115.044 39.4492C113.905 39.0586 112.375 38.6436 110.454 38.2041C107.882 37.6019 105.726 36.902 103.984 36.1045C102.259 35.2907 100.884 34.1921 99.8584 32.8086C98.8493 31.4089 98.3447 29.6755 98.3447 27.6084C98.3447 25.639 98.8818 23.8893 99.9561 22.3594C101.03 20.8294 102.585 19.6576 104.619 18.8438C106.654 18.0137 109.046 17.5986 111.797 17.5986C113.994 17.5986 115.89 17.8753 117.485 18.4287C119.097 18.9658 120.431 19.6901 121.489 20.6016C122.547 21.4967 123.32 22.4408 123.809 23.4336C124.297 24.4264 124.541 25.3949 124.541 26.3389C124.541 27.2015 124.232 27.9827 123.613 28.6826C123.011 29.3662 122.254 29.708 121.343 29.708C120.513 29.708 119.878 29.5046 119.438 29.0977C119.015 28.6745 118.551 27.9909 118.047 27.0469C117.396 25.696 116.615 24.6462 115.703 23.8975C114.792 23.1325 113.327 22.75 111.309 22.75C109.437 22.75 107.923 23.165 106.768 23.9951C105.628 24.8089 105.059 25.7936 105.059 26.9492C105.059 27.6654 105.254 28.2839 105.645 28.8047C106.035 29.3255 106.572 29.7731 107.256 30.1475C107.939 30.5218 108.631 30.8148 109.331 31.0264C110.031 31.238 111.187 31.5472 112.798 31.9541C114.816 32.4261 116.639 32.9469 118.267 33.5166C119.91 34.0863 121.302 34.778 122.441 35.5918C123.597 36.4056 124.492 37.4391 125.127 38.6924C125.778 39.9294 126.104 41.4512 126.104 43.2578ZM135.908 28.0967H136.641V24.0928C136.641 23.0186 136.665 22.1803 136.714 21.5781C136.779 20.9596 136.942 20.4307 137.202 19.9912C137.463 19.5355 137.837 19.1693 138.325 18.8926C138.813 18.5996 139.359 18.4531 139.961 18.4531C140.807 18.4531 141.572 18.7705 142.256 19.4053C142.712 19.8285 142.996 20.3493 143.11 20.9678C143.241 21.57 143.306 22.4326 143.306 23.5557V28.0967H145.747C146.691 28.0967 147.407 28.3245 147.896 28.7803C148.4 29.2197 148.652 29.7894 148.652 30.4893C148.652 31.3844 148.294 32.0111 147.578 32.3691C146.878 32.7272 145.869 32.9062 144.551 32.9062H143.306V45.1621C143.306 46.2038 143.338 47.0094 143.403 47.5791C143.485 48.1325 143.68 48.5882 143.989 48.9463C144.315 49.2881 144.836 49.459 145.552 49.459C145.942 49.459 146.471 49.3939 147.139 49.2637C147.806 49.1172 148.327 49.0439 148.701 49.0439C149.238 49.0439 149.718 49.2637 150.142 49.7031C150.581 50.1263 150.801 50.6553 150.801 51.29C150.801 52.3643 150.215 53.1862 149.043 53.7559C147.871 54.3255 146.187 54.6104 143.989 54.6104C141.906 54.6104 140.327 54.2604 139.253 53.5605C138.179 52.8607 137.471 51.8923 137.129 50.6553C136.803 49.4183 136.641 47.7663 136.641 45.6992V32.9062H135.762C134.801 32.9062 134.069 32.6784 133.564 32.2227C133.06 31.7669 132.808 31.1891 132.808 30.4893C132.808 29.7894 133.068 29.2197 133.589 28.7803C134.126 28.3245 134.899 28.0967 135.908 28.0967ZM163.633 44.9912V50.5576C163.633 51.9085 163.315 52.9258 162.681 53.6094C162.046 54.2767 161.24 54.6104 160.264 54.6104C159.303 54.6104 158.514 54.2686 157.896 53.585C157.277 52.9014 156.968 51.8923 156.968 50.5576V32.0029C156.968 29.0081 158.05 27.5107 160.215 27.5107C161.322 27.5107 162.119 27.8607 162.607 28.5605C163.096 29.2604 163.364 30.2939 163.413 31.6611C164.211 30.2939 165.024 29.2604 165.854 28.5605C166.701 27.8607 167.824 27.5107 169.224 27.5107C170.623 27.5107 171.982 27.8607 173.301 28.5605C174.619 29.2604 175.278 30.1882 175.278 31.3438C175.278 32.1576 174.993 32.833 174.424 33.3701C173.87 33.891 173.268 34.1514 172.617 34.1514C172.373 34.1514 171.779 34.0049 170.835 33.7119C169.907 33.4027 169.085 33.248 168.369 33.248C167.393 33.248 166.595 33.5085 165.977 34.0293C165.358 34.5339 164.878 35.2907 164.536 36.2998C164.194 37.3089 163.958 38.5133 163.828 39.9131C163.698 41.2965 163.633 42.9893 163.633 44.9912ZM198.267 50.8506C196.655 52.1038 195.093 53.0479 193.579 53.6826C192.082 54.3011 190.397 54.6104 188.525 54.6104C186.816 54.6104 185.311 54.2767 184.009 53.6094C182.723 52.9258 181.73 52.0062 181.03 50.8506C180.33 49.695 179.98 48.4417 179.98 47.0908C179.98 45.2679 180.558 43.7135 181.714 42.4277C182.869 41.1419 184.456 40.2793 186.475 39.8398C186.898 39.7422 187.948 39.5225 189.624 39.1807C191.3 38.8389 192.733 38.5296 193.921 38.2529C195.125 37.96 196.427 37.61 197.827 37.2031C197.746 35.4453 197.388 34.1595 196.753 33.3457C196.134 32.5156 194.84 32.1006 192.871 32.1006C191.178 32.1006 189.901 32.3366 189.038 32.8086C188.192 33.2806 187.459 33.9886 186.841 34.9326C186.239 35.8766 185.807 36.5033 185.547 36.8125C185.303 37.1055 184.766 37.252 183.936 37.252C183.187 37.252 182.536 37.016 181.982 36.5439C181.445 36.0557 181.177 35.4372 181.177 34.6885C181.177 33.5166 181.592 32.3773 182.422 31.2705C183.252 30.1637 184.546 29.2523 186.304 28.5361C188.062 27.82 190.251 27.4619 192.871 27.4619C195.801 27.4619 198.104 27.8118 199.78 28.5117C201.457 29.1953 202.637 30.2858 203.32 31.7832C204.02 33.2806 204.37 35.2663 204.37 37.7402C204.37 39.3027 204.362 40.6292 204.346 41.7197C204.346 42.8102 204.338 44.0228 204.321 45.3574C204.321 46.6107 204.525 47.9209 204.932 49.2881C205.355 50.639 205.566 51.5098 205.566 51.9004C205.566 52.584 205.241 53.2106 204.59 53.7803C203.955 54.3337 203.231 54.6104 202.417 54.6104C201.733 54.6104 201.058 54.293 200.391 53.6582C199.723 53.0072 199.015 52.0713 198.267 50.8506ZM197.827 41.207C196.851 41.5651 195.426 41.9476 193.555 42.3545C191.699 42.7451 190.413 43.0381 189.697 43.2334C188.981 43.4124 188.298 43.7786 187.646 44.332C186.995 44.8691 186.67 45.626 186.67 46.6025C186.67 47.6117 187.052 48.4743 187.817 49.1904C188.582 49.8903 189.583 50.2402 190.82 50.2402C192.139 50.2402 193.351 49.9554 194.458 49.3857C195.581 48.7998 196.403 48.0511 196.924 47.1396C197.526 46.1305 197.827 44.4704 197.827 42.1592V41.207ZM214.004 28.0967H214.736V24.0928C214.736 23.0186 214.761 22.1803 214.81 21.5781C214.875 20.9596 215.037 20.4307 215.298 19.9912C215.558 19.5355 215.933 19.1693 216.421 18.8926C216.909 18.5996 217.454 18.4531 218.057 18.4531C218.903 18.4531 219.668 18.7705 220.352 19.4053C220.807 19.8285 221.092 20.3493 221.206 20.9678C221.336 21.57 221.401 22.4326 221.401 23.5557V28.0967H223.843C224.787 28.0967 225.503 28.3245 225.991 28.7803C226.496 29.2197 226.748 29.7894 226.748 30.4893C226.748 31.3844 226.39 32.0111 225.674 32.3691C224.974 32.7272 223.965 32.9062 222.646 32.9062H221.401V45.1621C221.401 46.2038 221.434 47.0094 221.499 47.5791C221.58 48.1325 221.776 48.5882 222.085 48.9463C222.41 49.2881 222.931 49.459 223.647 49.459C224.038 49.459 224.567 49.3939 225.234 49.2637C225.902 49.1172 226.423 49.0439 226.797 49.0439C227.334 49.0439 227.814 49.2637 228.237 49.7031C228.677 50.1263 228.896 50.6553 228.896 51.29C228.896 52.3643 228.311 53.1862 227.139 53.7559C225.967 54.3255 224.282 54.6104 222.085 54.6104C220.002 54.6104 218.423 54.2604 217.349 53.5605C216.274 52.8607 215.566 51.8923 215.225 50.6553C214.899 49.4183 214.736 47.7663 214.736 45.6992V32.9062H213.857C212.897 32.9062 212.165 32.6784 211.66 32.2227C211.156 31.7669 210.903 31.1891 210.903 30.4893C210.903 29.7894 211.164 29.2197 211.685 28.7803C212.222 28.3245 212.995 28.0967 214.004 28.0967ZM252.422 50.8506V49.9961C251.624 51.0052 250.786 51.8516 249.907 52.5352C249.028 53.2188 248.068 53.7233 247.026 54.0488C245.985 54.3906 244.797 54.5615 243.462 54.5615C241.851 54.5615 240.402 54.2279 239.116 53.5605C237.847 52.8932 236.862 51.9736 236.162 50.8018C235.332 49.3857 234.917 47.3512 234.917 44.6982V31.4902C234.917 30.1556 235.218 29.1628 235.82 28.5117C236.423 27.8444 237.22 27.5107 238.213 27.5107C239.222 27.5107 240.036 27.8444 240.654 28.5117C241.273 29.179 241.582 30.1719 241.582 31.4902V42.1592C241.582 43.7054 241.712 45.0075 241.973 46.0654C242.233 47.1071 242.697 47.929 243.364 48.5312C244.048 49.1172 244.967 49.4102 246.123 49.4102C247.246 49.4102 248.304 49.0765 249.297 48.4092C250.29 47.7419 251.014 46.8711 251.47 45.7969C251.844 44.8529 252.031 42.7858 252.031 39.5957V31.4902C252.031 30.1719 252.34 29.179 252.959 28.5117C253.577 27.8444 254.383 27.5107 255.376 27.5107C256.369 27.5107 257.166 27.8444 257.769 28.5117C258.371 29.1628 258.672 30.1556 258.672 31.4902V50.8018C258.672 52.0713 258.379 53.0234 257.793 53.6582C257.223 54.293 256.483 54.6104 255.571 54.6104C254.66 54.6104 253.903 54.2848 253.301 53.6338C252.715 52.9665 252.422 52.0387 252.422 50.8506ZM290.547 45.8945C290.547 47.7337 290.099 49.3125 289.204 50.6309C288.309 51.9329 286.982 52.9258 285.225 53.6094C283.483 54.2767 281.359 54.6104 278.853 54.6104C276.46 54.6104 274.409 54.2441 272.7 53.5117C270.991 52.7793 269.73 51.8678 268.916 50.7773C268.102 49.6706 267.695 48.5638 267.695 47.457C267.695 46.7246 267.956 46.098 268.477 45.5771C268.997 45.0563 269.657 44.7959 270.454 44.7959C271.154 44.7959 271.691 44.9668 272.065 45.3086C272.44 45.6504 272.798 46.1305 273.14 46.749C273.823 47.9372 274.637 48.8242 275.581 49.4102C276.541 49.9961 277.843 50.2891 279.487 50.2891C280.822 50.2891 281.912 49.9961 282.759 49.4102C283.621 48.8079 284.053 48.1243 284.053 47.3594C284.053 46.1875 283.605 45.333 282.71 44.7959C281.831 44.2588 280.374 43.7461 278.34 43.2578C276.045 42.6882 274.173 42.0941 272.725 41.4756C271.292 40.8408 270.145 40.0107 269.282 38.9854C268.42 37.96 267.988 36.6986 267.988 35.2012C267.988 33.8665 268.387 32.6051 269.185 31.417C269.982 30.2288 271.154 29.2848 272.7 28.585C274.263 27.8688 276.143 27.5107 278.34 27.5107C280.065 27.5107 281.611 27.6898 282.979 28.0479C284.362 28.4059 285.509 28.8861 286.421 29.4883C287.349 30.0905 288.049 30.7578 288.521 31.4902C289.009 32.2227 289.253 32.9388 289.253 33.6387C289.253 34.4036 288.993 35.0303 288.472 35.5186C287.967 36.0068 287.243 36.251 286.299 36.251C285.615 36.251 285.029 36.0557 284.541 35.665C284.069 35.2744 283.524 34.6885 282.905 33.9072C282.401 33.2562 281.807 32.7354 281.123 32.3447C280.439 31.9541 279.512 31.7588 278.34 31.7588C277.135 31.7588 276.134 32.0192 275.337 32.54C274.539 33.0446 274.141 33.6794 274.141 34.4443C274.141 35.1442 274.434 35.722 275.02 36.1777C275.605 36.6172 276.395 36.9834 277.388 37.2764C278.381 37.5693 279.748 37.9274 281.489 38.3506C283.556 38.8551 285.241 39.4574 286.543 40.1572C287.861 40.8571 288.854 41.6872 289.521 42.6475C290.205 43.5915 290.547 44.6738 290.547 45.8945Z" fill="black"/>
</svg>
