<svg width="197" height="164" viewBox="0 0 197 164" fill="none" xmlns="http://www.w3.org/2000/svg">
<path fill-rule="evenodd" clip-rule="evenodd" d="M33.2924 15.7869C21.8741 18.8464 15.098 30.583 18.1575 42.0013L22.8081 59.3576C25.5832 69.7144 35.4972 76.252 45.8372 75.0948C45.8644 75.1782 45.8919 75.2619 45.9197 75.3459L72.567 68.2058C75.9142 62.5718 62.7601 33.9656 56.9046 24.8858C56.0433 23.5503 55.3119 22.6377 54.6813 22.0697C49.4632 16.3327 41.2995 13.6414 33.2924 15.7869Z" fill="#191847"/>
<path fill-rule="evenodd" clip-rule="evenodd" d="M45.5504 59.9334C52.4599 61.9193 58.7698 62.0826 61.325 60.641C67.7322 57.0263 61.631 31.7254 53.6516 23.2445C45.6721 14.7637 17.1416 17.78 21.0218 37.7798C22.3684 44.7211 26.8634 50.0334 32.4269 53.8602L34.3 91.2186L56.3529 85.3095L45.5504 59.9334Z" fill="#B28B67"/>
<path fill-rule="evenodd" clip-rule="evenodd" d="M18.1353 38.6762C18.6062 37.8726 19.0619 37.0951 19.5299 36.383L19.3093 35.678C19.3093 35.678 22.4405 19.6784 33.0811 16.8273C43.7121 13.9787 48.3962 18.0115 52.3779 21.4396L52.3886 21.4489C52.2658 26.9698 48.3156 30.2486 43.848 33.9568C41.9249 35.553 39.9059 37.2289 38.0551 39.1973C36.9971 38.7253 35.7755 38.5997 34.5684 38.9232C31.7772 39.6711 30.1198 42.5361 30.8664 45.3224C31.613 48.1086 34.4808 49.7611 37.272 49.0132C37.349 48.9926 37.4251 48.9703 37.5003 48.9465C41.4358 59.5697 44.3626 72.121 42.1259 75.8859L15.4786 83.026C11.1586 69.9635 13.5826 65.2575 16.0595 60.4487C18.3902 55.9239 20.7677 51.3082 17.6182 39.5545C17.7934 39.2596 17.9654 38.9662 18.1353 38.6763V38.6762Z" fill="#191847"/>
<path fill-rule="evenodd" clip-rule="evenodd" d="M108.826 81.2715L79.4434 104.784L93.7202 115.532L113.54 89.7701C125.383 84.151 130.634 80.6422 129.291 79.2439C128.16 78.0648 126.723 78.366 125.399 78.6435C124.368 78.8597 123.406 79.0614 122.71 78.5377C121.122 77.3417 122.788 71.8865 124.592 66.7772C126.395 61.6678 123.662 62.5669 122.176 63.518C117.553 67.99 113.103 73.9078 108.826 81.2715ZM145.919 100.453L133.017 110.804L136.353 124.97C136.353 124.97 144.429 116.673 151.997 113.055C161.647 108.441 165.372 105.56 169.219 98.3777C171.277 94.5351 172.333 87.3537 169.418 85.5896C168.3 84.9129 165.043 87.5517 161.72 90.2441C159.188 92.296 156.617 94.3791 154.925 95.0495C152.648 95.9519 152.385 92.8452 152.175 90.3627C152.025 88.5813 151.901 87.1212 151.08 87.6945C146.912 88.5033 145.919 100.453 145.919 100.453Z" fill="#997659"/>
<path fill-rule="evenodd" clip-rule="evenodd" d="M62.9096 103.616C74.278 101.487 89.0428 96.4078 103.438 83.2812L112.3 96.3273C103.074 109.373 88.9614 121.243 75.15 123.281C64.2659 124.887 56.4246 112.786 62.9096 103.616Z" fill="#780B5B"/>
<path fill-rule="evenodd" clip-rule="evenodd" d="M57.3243 67.5088L31.3301 72.0922C28.4797 72.5948 15.6434 113.085 19.8723 137.173C20.2569 139.364 20.4243 141.511 20.4304 143.633H41.0476H91.4135H139.416C144.945 140.173 150.641 136.211 156.493 131.714C155.649 122.26 141.204 102.257 141.204 102.257C141.204 102.257 101.883 124.554 82.2373 123.605C80.4477 120.013 78.6104 116.42 76.7758 112.833C68.9201 97.4715 61.1145 82.2086 57.3243 67.5088Z" fill="#8C0E6B"/>
<path d="M158.246 1.28287C158.717 0.671986 159.64 0.671986 160.111 1.28287L170.526 14.7924C171.121 15.5647 170.569 16.683 169.593 16.683H148.764C147.787 16.683 147.236 15.5647 147.831 14.7924L158.246 1.28287Z" fill="#008080"/>
<path d="M164.77 16.4849H153.812V30.5931H164.77V16.4849Z" fill="#008080"/>
<path d="M159.291 34.7683C162.316 34.7683 164.769 32.9313 164.769 30.6654C164.769 28.3994 162.316 26.5625 159.291 26.5625C156.265 26.5625 153.812 28.3994 153.812 30.6654C153.812 32.9313 156.265 34.7683 159.291 34.7683Z" fill="#008080"/>
<path d="M164.769 30.5933H159.195V34.7682H164.769V30.5933Z" fill="#008080"/>
<path fill-rule="evenodd" clip-rule="evenodd" d="M158.36 36.9759H167.058V19.3159H190.686C194.111 19.3159 196.888 22.3047 196.888 25.9916C196.888 29.6785 194.111 32.6674 190.686 32.6674H187.111C188.578 33.8882 189.523 35.8015 189.523 37.9522C189.523 41.6392 186.746 44.628 183.321 44.628H179.009C179.444 45.5141 179.688 46.5108 179.688 47.5643C179.688 51.2512 176.697 54.2401 173.008 54.2401H171.024C171.505 55.1345 171.775 56.143 171.775 57.2099C171.775 60.8968 168.549 63.8856 164.571 63.8856H157.366C153.388 63.8856 150.162 60.8968 150.162 57.2099C150.162 56.143 150.432 55.1345 150.913 54.2401H148.929C145.24 54.2401 142.249 51.2512 142.249 47.5643C142.249 46.5108 142.493 45.5141 142.928 44.628H138.745C135.32 44.628 132.543 41.6392 132.543 37.9522C132.543 35.8015 133.488 33.8882 134.956 32.6674H131.251C127.826 32.6674 125.049 29.6785 125.049 25.9916C125.049 22.3047 127.826 19.3159 131.251 19.3159H151.524V31.6873H151.527C151.525 31.7433 151.524 31.7994 151.524 31.8558C151.524 34.6272 154.464 36.8842 158.135 36.9732V36.9759H158.36Z" fill="#07468C"/>
</svg>
