<svg width="194" height="157" viewBox="0 0 194 157" fill="none" xmlns="http://www.w3.org/2000/svg">
<path fill-rule="evenodd" clip-rule="evenodd" d="M148.31 0.472251C147.825 -0.157416 146.875 -0.157417 146.39 0.47225L137.474 12.0523C136.861 12.8483 137.429 14.0009 138.434 14.0009H142.582V26.3751H142.583C142.583 26.3964 142.582 26.4178 142.582 26.4391C142.582 28.4336 144.716 30.0543 147.364 30.0885V30.0891H152.317V26.4431V26.4391V26.4353V26.3751V14.0009H156.266C157.271 14.0009 157.839 12.8483 157.226 12.0523L148.31 0.472251ZM160.265 48.5077C159.78 49.1373 158.83 49.1373 158.345 48.5077L149.429 36.9275C148.816 36.1315 149.384 34.979 150.389 34.979H154.338V22.6047V22.5452C154.338 22.5437 154.338 22.5422 154.338 22.5407C154.338 22.5391 154.338 22.5377 154.338 22.5361V18.8909H159.193C159.197 18.8909 159.201 18.8909 159.205 18.8909C159.209 18.8909 159.214 18.8909 159.218 18.8909H159.291V18.8914C161.94 18.9255 164.073 20.5463 164.073 22.5407C164.073 22.562 164.073 22.5834 164.072 22.6047H164.073V34.979H168.221C169.226 34.979 169.794 36.1316 169.181 36.9275L160.265 48.5077Z" fill="#008080"/>
<path fill-rule="evenodd" clip-rule="evenodd" d="M126.169 18.9414H140.631V27.3929V27.4876H140.632C140.699 29.9593 143.392 31.9475 146.705 31.9475C146.912 31.9475 147.117 31.9397 147.319 31.9245V31.9475H152.395V33.1232H151.085C150.998 33.1171 150.909 33.1141 150.82 33.1141C148.887 33.1141 147.319 34.5403 147.319 36.2996C147.319 36.7748 147.434 37.2255 147.639 37.6307L147.626 37.6385L147.679 37.7069C147.836 37.9967 148.04 38.2615 148.282 38.4933L152.287 43.7157V43.7248H152.294L156.37 49.0402C156.977 49.9858 158.104 50.621 159.395 50.621C160.593 50.621 161.65 50.0733 162.281 49.2378L162.286 49.2412L170.898 38.0121L170.889 38.0066C171.229 37.5157 171.426 36.9343 171.426 36.3112C171.426 34.5519 169.859 33.1257 167.925 33.1257H166.198V21.7865H166.194C166.196 21.7368 166.198 21.6868 166.198 21.6365C166.198 20.628 165.76 19.6961 165.02 18.9414H187.355C190.881 18.9414 193.739 22.0221 193.739 25.8225C193.739 29.6227 190.881 32.7035 187.355 32.7035H183.674C185.185 33.9619 186.158 35.934 186.158 38.1509C186.158 41.9513 183.299 45.0321 179.773 45.0321H176.782C177.229 45.9453 177.481 46.9726 177.481 48.0586C177.481 51.8589 174.402 54.9397 170.603 54.9397H168.662C169.156 55.8617 169.434 56.9012 169.434 58.0008C169.434 61.8011 166.114 64.8819 162.018 64.8819H154.602C150.506 64.8819 147.185 61.8011 147.185 58.0008C147.185 56.9012 147.463 55.8617 147.958 54.9397H145.816C142.018 54.9397 138.938 51.8589 138.938 48.0586C138.938 46.9726 139.19 45.9453 139.638 45.0321H133.884C130.358 45.0321 127.499 41.9513 127.499 38.1509C127.499 35.934 128.472 33.9619 129.983 32.7035H126.169C122.643 32.7035 119.785 29.6227 119.785 25.8225C119.785 22.0221 122.643 18.9414 126.169 18.9414ZM154.006 34.9779H154.423V34.9804H154.007L154.006 34.9779Z" fill="#07468C"/>
<path fill-rule="evenodd" clip-rule="evenodd" d="M33.2924 8.15407C21.8741 11.2136 15.098 22.9502 18.1575 34.3685L22.8081 51.7247C25.5832 62.0816 35.4972 68.6192 45.8372 67.462C45.8644 67.5454 45.8919 67.6291 45.9197 67.7131L72.567 60.573C75.9142 54.9389 62.7601 26.3328 56.9046 17.253C56.0433 15.9175 55.3119 15.0049 54.6813 14.4369C49.4632 8.69983 41.2995 6.00856 33.2924 8.15407Z" fill="#191847"/>
<path fill-rule="evenodd" clip-rule="evenodd" d="M45.5504 52.3006C52.4599 54.2864 58.7698 54.4497 61.325 53.0082C67.7322 49.3935 61.631 24.0926 53.6516 15.6117C45.6721 7.13089 17.1416 10.1472 21.0218 30.147C22.3684 37.0883 26.8634 42.4006 32.4269 46.2274L34.3 83.5858L56.3529 77.6767L45.5504 52.3006Z" fill="#B28B67"/>
<path fill-rule="evenodd" clip-rule="evenodd" d="M18.1353 31.0434C18.6062 30.2398 19.0619 29.4623 19.5299 28.7502L19.3093 28.0452C19.3093 28.0452 22.4405 12.0456 33.0811 9.19444C43.7121 6.34587 48.3962 10.3787 52.3779 13.8068L52.3886 13.816C52.2658 19.337 48.3156 22.6158 43.848 26.324C41.9249 27.9202 39.9059 29.596 38.0551 31.5645C36.9971 31.0925 35.7755 30.9669 34.5684 31.2904C31.7772 32.0383 30.1198 34.9033 30.8664 37.6895C31.613 40.4758 34.4808 42.1283 37.272 41.3804C37.349 41.3598 37.4251 41.3375 37.5003 41.3137C41.4358 51.9368 44.3626 64.4882 42.1259 68.2531L15.4786 75.3932C11.1586 62.3307 13.5826 57.6247 16.0595 52.8159C18.3902 48.2911 20.7677 43.6754 17.6182 31.9216C17.7934 31.6267 17.9654 31.3334 18.1353 31.0435V31.0434Z" fill="#191847"/>
<path fill-rule="evenodd" clip-rule="evenodd" d="M108.826 73.6387L79.4434 97.151L93.7202 107.9L113.54 82.1373C125.383 76.5182 130.634 73.0094 129.291 71.6111C128.16 70.432 126.723 70.7332 125.399 71.0107C124.368 71.2269 123.406 71.4286 122.71 70.9049C121.122 69.7089 122.788 64.2537 124.592 59.1444C126.395 54.035 123.662 54.934 122.176 55.8852C117.553 60.3572 113.103 66.275 108.826 73.6387ZM145.919 92.8198L133.017 103.171L136.353 117.337C136.353 117.337 144.429 109.04 151.997 105.422C161.647 100.808 165.372 97.9268 169.219 90.7449C171.277 86.9023 172.333 79.7209 169.418 77.9568C168.3 77.2801 165.043 79.9189 161.72 82.6113C159.188 84.6632 156.617 86.7463 154.925 87.4167C152.648 88.3191 152.385 85.2124 152.175 82.7299C152.025 80.9485 151.901 79.4884 151.08 80.0617C146.912 80.8705 145.919 92.8198 145.919 92.8198Z" fill="#997659"/>
<path fill-rule="evenodd" clip-rule="evenodd" d="M62.9096 95.9828C74.278 93.8543 89.0428 88.7749 103.438 75.6484L112.3 88.6945C103.074 101.74 88.9614 113.61 75.15 115.649C64.2659 117.255 56.4246 105.153 62.9096 95.9828Z" fill="#780B5B"/>
<path fill-rule="evenodd" clip-rule="evenodd" d="M57.3243 59.876L31.3301 64.4594C28.4797 64.962 15.6434 105.452 19.8723 129.541C20.2569 131.731 20.4243 133.878 20.4304 136H41.0476H91.4135H139.416C144.945 132.54 150.641 128.578 156.493 124.081C155.649 114.627 141.204 94.6243 141.204 94.6243C141.204 94.6243 101.883 116.921 82.2373 115.972C80.4477 112.38 78.6104 108.787 76.7758 105.2C68.9201 89.8387 61.1145 74.5757 57.3243 59.876Z" fill="#8C0E6B"/>
</svg>
