<svg width="63" height="63" viewBox="0 0 63 63" fill="none" xmlns="http://www.w3.org/2000/svg">
<path d="M63 51.3056V63H51.3056V55.3481H47.25V51.3056H43.1944V47.25H39.1387V51.3056H31.5131V55.3481H23.8613V47.25H27.4444V43.2075H31.5131V39.1387H27.4444V35.5556H23.8613V31.5131H19.8056V27.4444H15.75V23.8613H11.6944V19.8056H7.65188V15.7631H4.0425V11.6944H0V0H11.6944V4.06875H15.75V8.11125H19.8056V11.6944H23.8613V15.7631H27.4444V19.8056H31.5131V23.8613H35.5556V27.4444H39.1387V31.5131H43.1944V27.4444H47.25V23.8613H55.3481V31.5131H51.3056V39.1387H47.25V43.2075H51.3056V47.25H55.3481V51.3056H63Z" fill="black"/>
</svg>
