<svg width="63" height="63" viewBox="0 0 63 63" fill="none" xmlns="http://www.w3.org/2000/svg">
<g clip-path="url(#clip0)">
<path d="M62.4747 13.4242C62.1991 12.3131 60.8087 11.9366 59.9991 12.7462L50.8493 21.896L42.4969 20.5043L41.1053 12.1519L50.255 3.00216C51.0696 2.18759 50.677 0.799621 49.5586 0.521536C43.7286 -0.923032 37.3093 0.633508 32.7529 5.18869C27.8753 10.0663 26.5329 17.1365 28.5631 23.3012L2.3062 49.5581C-0.768733 52.633 -0.768733 57.6189 2.3062 60.6938C5.38113 63.7687 10.367 63.7687 13.4419 60.6938L39.6767 34.459C45.8438 36.5151 52.9005 35.1579 57.8101 30.2484C62.3714 25.687 63.9255 19.2578 62.4747 13.4242ZM7.87529 58.0778C6.24492 58.0778 4.92217 56.7551 4.92217 55.1247C4.92217 53.4931 6.24492 52.1716 7.87529 52.1716C9.50566 52.1716 10.8284 53.4931 10.8284 55.1247C10.8284 56.7551 9.50566 58.0778 7.87529 58.0778Z" fill="#121212"/>
</g>
<defs>
<clipPath id="clip0">
<rect width="63" height="63" fill="white"/>
</clipPath>
</defs>
</svg>
