<svg width="47" height="63" viewBox="0 0 47 63" fill="none" xmlns="http://www.w3.org/2000/svg">
<g clip-path="url(#clip0)">
<path d="M27.4167 16.7344V0H2.9375C1.30964 0 0 1.3166 0 2.95312V60.0469C0 61.6834 1.30964 63 2.9375 63H44.0625C45.6904 63 47 61.6834 47 60.0469V19.6875H30.3542C28.7386 19.6875 27.4167 18.3586 27.4167 16.7344ZM35.3945 43.3137H27.4167V53.1575C27.4167 54.2452 26.5403 55.1262 25.4584 55.1262H21.5417C20.4597 55.1262 19.5834 54.2452 19.5834 53.1575V43.3137H11.6056C9.85776 43.3137 8.98508 41.1862 10.2262 39.9472L22.0276 28.1716C22.8415 27.3582 24.1561 27.3582 24.97 28.1716L36.7714 39.9472C38.0137 41.1862 37.1423 43.3137 35.3945 43.3137ZM46.1433 12.9199L34.1607 0.861328C33.6099 0.307617 32.8633 0 32.08 0H31.3334V15.75H47V14.9994C47 14.2242 46.694 13.4736 46.1433 12.9199Z" fill="#121212"/>
</g>
<defs>
<clipPath id="clip0">
<rect width="47" height="63" fill="white"/>
</clipPath>
</defs>
</svg>
