<svg width="79" height="63" viewBox="0 0 79 63" fill="none" xmlns="http://www.w3.org/2000/svg">
<path d="M23.7 31.5C31.3408 31.5 37.525 25.1257 37.525 17.25C37.525 9.37433 31.3408 3 23.7 3C16.0593 3 9.875 9.37433 9.875 17.25C9.875 25.1257 16.0593 31.5 23.7 31.5ZM33.18 35.5714H32.1555C29.588 36.8438 26.7366 37.6071 23.7 37.6071C20.6635 37.6071 17.8244 36.8438 15.2446 35.5714H14.22C6.36938 35.5714 0 42.1366 0 50.2286V53.8929C0 57.2645 2.65391 60 5.925 60H41.475C44.7461 60 47.4 57.2645 47.4 53.8929V50.2286C47.4 42.1366 41.0307 35.5714 33.18 35.5714ZM59.25 31.5C65.7922 31.5 71.1 26.029 71.1 19.2857C71.1 12.5424 65.7922 7.07143 59.25 7.07143C52.7079 7.07143 47.4 12.5424 47.4 19.2857C47.4 26.029 52.7079 31.5 59.25 31.5ZM65.175 35.5714H64.706C62.9902 36.1821 61.1757 36.5893 59.25 36.5893C57.3244 36.5893 55.5099 36.1821 53.7941 35.5714H53.325C50.8069 35.5714 48.4863 36.3221 46.4496 37.5308C49.4615 40.877 51.35 45.3174 51.35 50.2286V55.1143C51.35 55.3942 51.2883 55.6614 51.276 55.9286H73.075C76.3461 55.9286 79 53.1931 79 49.8214C79 41.9458 72.8158 35.5714 65.175 35.5714Z" fill="#121212"/>
</svg>
