<svg width="152" height="111" viewBox="0 0 152 111" fill="none" xmlns="http://www.w3.org/2000/svg">
<path d="M138.149 55.4127V41.6735H124.315V27.4818H110.465L110.463 13.8968H124.283V0H110.433V13.8968H96.6123V27.7936H55.3894V13.8968H41.5708V0H27.72V13.8968H41.5387L41.537 27.4818H27.6863V41.6735H13.8507V55.4127H0V97.1049H13.8507V69.3096H13.8524H27.6863V97.1049H41.4998V111H41.5708H69.1996V97.1049H41.5708H41.537V83.2064H41.5387H110.463H110.465V97.1049H110.431H82.8004V111H110.431H110.502V97.1049H124.315V69.3096H138.149V97.1049H152V55.4127H138.149ZM55.3421 55.4127H41.5556V41.6888H55.3421V55.4127ZM110.444 55.4127H96.6612V41.6888H110.444V55.4127Z" fill="#E1261C"/>
</svg>
