<svg width="72" height="72" viewBox="0 0 72 72" fill="none" xmlns="http://www.w3.org/2000/svg">
<path fill-rule="evenodd" clip-rule="evenodd" d="M5.14286 0C2.30254 0 0 2.30254 0 5.14286V66.8571C0 69.6974 2.30254 72 5.14286 72H66.8571C69.6974 72 72 69.6974 72 66.8571V5.14286C72 2.30254 69.6974 0 66.8571 0H5.14286ZM52.5783 16.39C52.5783 19.3855 49.2456 28.7392 48.0886 31.9728C52.8355 33.1333 53.5179 36.9919 53.5179 41.2671C53.5179 52.6045 46.259 61.3929 34.5896 61.3929C25.0759 61.3929 18.3116 53.8147 18.3214 46.6531C18.3214 42.9731 19.7257 40.5329 23.3749 39.5412C23.3568 39.4922 23.3378 39.4417 23.3185 39.3899C23.0124 38.5716 22.5837 37.4254 22.5837 36.5951C22.5837 34.2641 25.0462 31.3777 27.3603 31.3777C28.0427 31.3777 28.7151 31.576 29.3382 31.8042C29.2077 31.4327 29.0528 30.9979 28.8802 30.5134C27.4306 26.4444 24.7297 18.8642 24.7297 15.7353C24.7297 12.8786 26.1736 10.6071 29.2492 10.6071C32.9554 10.6071 37.1303 23.1449 38.4313 27.0521C38.519 27.3152 38.5936 27.5392 38.654 27.7176C38.8289 27.2769 39.0582 26.6373 39.3356 25.8636C41.0186 21.1683 44.47 11.5395 48.2567 11.5395C51.0257 11.5395 52.5783 13.7515 52.5783 16.39ZM48.2567 14.9418C46.6743 14.9418 44.9833 20.0997 44.5878 21.3197L41.3143 30.614L44.6766 31.2091C44.7048 31.1316 44.7361 31.045 44.7707 30.9499C45.7681 28.1986 49.3346 18.3602 49.3346 16.5288C49.3346 15.8246 49.1072 14.9418 48.2567 14.9418ZM32.4138 20.07C29.269 10.865 27.8351 14.2177 27.8351 15.3981C27.8351 18.2364 31.1437 27.0019 32.2788 30.0097L32.3347 30.1577C33.0122 29.7694 34.0338 29.8599 35.3371 29.9755C35.4989 29.9898 35.6652 30.0046 35.8356 30.0189L32.4138 20.07ZM34.2434 45.4629C34.2434 44.1932 30.5052 34.8097 27.6077 34.8097C26.846 34.8097 25.6 36.1389 25.5902 36.9026C25.5902 38.9658 31.1283 46.5936 33.1951 46.5936C33.7588 46.5936 34.2434 45.9686 34.2434 45.4629ZM34.9851 58.1096C39.2771 58.1096 42.956 56.4631 45.8338 53.289C51.3026 47.1888 50.6894 37.5573 48.8996 35.9603C46.526 33.8673 38.4167 33.0739 35.2225 33.0739C33.5115 33.0739 33.5017 33.7087 33.5017 34.3733C33.5017 38.4114 41.4747 38.3432 44.7805 38.3151C45.0233 38.313 45.2409 38.3111 45.4283 38.3111C46.5359 38.3111 46.9908 39.2932 47.0996 40.4041C46.3678 41.138 45.3492 41.5646 44.3899 41.9316C43.4604 42.2688 42.5011 42.6359 41.7099 43.231C39.5343 44.8181 37.3882 47.5359 37.3882 50.3429C37.3882 51.2246 37.6525 52.0436 37.9157 52.8593C38.1767 53.6678 38.4364 54.473 38.4364 55.3323C38.4364 55.3433 38.4101 55.4324 38.3763 55.5458C38.3181 55.7418 38.2387 56.0097 38.2387 56.0663C35.0148 55.8382 34.2236 52.6343 34.1148 49.9463C33.8442 50.0181 33.4967 50.0128 33.1806 50.008C33.1039 50.0069 33.0292 50.0058 32.9578 50.0058C33.4622 51.7714 31.7809 54.1718 29.1999 54.1718C25.4616 54.1718 20.4972 48.4981 23.4342 45.5521C24.1401 46.4377 24.709 47.1981 25.1899 47.8409C26.6424 49.7827 27.2915 50.6506 28.4877 50.6506C28.8834 50.6506 29.6449 50.3132 29.6449 49.8272C29.6449 48.5576 25.4023 42.5764 24.2749 42.5764C22.6135 42.5764 20.5465 45.0463 22.2377 49.351C24.4726 54.8761 29.1108 58.1096 34.9851 58.1096ZM38.0465 41.2144C37.3846 41.1056 36.7271 40.9974 36.0828 40.7909C36.1549 40.9784 36.2281 41.166 36.3012 41.3537C36.5493 41.9903 36.7986 42.6295 37.0125 43.2807C37.6354 42.5764 38.2881 41.9217 39.02 41.386C38.6952 41.3209 38.3704 41.2676 38.0465 41.2144Z" fill="white"/>
</svg>
