<svg width="72" height="72" viewBox="0 0 72 72" fill="none" xmlns="http://www.w3.org/2000/svg">
<path fill-rule="evenodd" clip-rule="evenodd" d="M5.14286 0C2.30254 0 0 2.30254 0 5.14286V66.8571C0 69.6974 2.30254 72 5.14286 72H66.8571C69.6974 72 72 69.6974 72 66.8571V5.14286C72 2.30254 69.6974 0 66.8571 0H5.14286ZM37.2185 10.9745L60.4291 26.4483C61.0243 26.8449 61.3927 27.5535 61.3929 28.2619V43.7357C61.3929 44.4442 61.0243 45.1528 60.4292 45.5495L37.2185 61.0255C36.4191 61.5176 35.5736 61.5131 34.7815 61.0255L11.5708 45.5495C10.9755 45.1528 10.6071 44.4442 10.6071 43.7357V28.2619C10.6071 27.5535 10.9755 26.8449 11.5707 26.4483L34.7813 10.9745C35.5807 10.4825 36.4262 10.4869 37.2185 10.9745ZM55.2712 28.2619L38.1822 16.8691V27.0434L47.6478 33.3633L55.2712 28.2619ZM33.8178 27.0434V16.8691L16.7286 28.2619L24.3521 33.3633L33.8178 27.0434ZM20.4413 35.9989L14.9715 32.3429V39.6548L20.4413 35.9989ZM16.7286 43.7358L33.8178 55.1287V44.9545L24.3521 38.6346L16.7286 43.7358ZM28.2913 35.9989L36 41.1568L43.7085 35.9989L36 30.8409L28.2913 35.9989ZM38.1822 44.9545V55.1287L55.2712 43.7358L47.6478 38.6346L38.1822 44.9545ZM51.5587 35.9989L57.0283 39.6548V32.3429L51.5587 35.9989Z" fill="white"/>
</svg>
