<svg width="96" height="64" viewBox="0 0 96 64" fill="none" xmlns="http://www.w3.org/2000/svg">
<path d="M92.0186 0H88.0029H84.0183H80.0026H76.0181H72.0023H68.0178H64.0021H60.0176H56.0018H52.0173H48.0016V0.00519942H43.9869H40.0023H35.9866H32.0021H27.9874H24.0029H19.9871H16.0026H11.9879H8.00338H3.98452H0V3.99902V8.00325V11.9971V16.0013V19.9951V23.9994V27.9932V31.9974V36.012V39.9955V44.009V47.9925V52.0071V56.002V60.0062V64H3.98452H8.00026H11.9848H15.9995H19.984H23.9997H27.9843H31.999H35.9835H39.9992H43.9837H48.0016V63.9948H52.0163H56.0008H60.0165H64.001H68.0157H72.0003H76.016H80.0005H84.0152H87.9997H92.0155H96V59.9999V55.9957V52.0019V47.9883V44.0049V39.9903V36.0068V31.9922V27.988V23.9941V19.9899V15.9961V11.9919V7.99805V3.99383V0H92.0186V0ZM16.0005 4.00006H19.985H24.0008H27.9853H32H35.9845H40.0003H43.9848H48.0016V3.99486H52.0163H56.0008H60.0165H64.001H68.0157H72.0003H76.016H80.0005H84.0152V7.99909H80.0026V11.9929H76.0181V15.9971H72.0023V19.991H68.0178V23.9952H64.0021V27.989H60.0176V31.9932H56.0018V36.0079H52.0173V39.9913H48.0016V39.9965H43.9869V36.0131H40.0023V31.9984H35.9866V27.9942H32.0021V24.0004H27.9874V19.9962H24.0029V16.0023H19.9871V11.9981H16.0026V8.00429H11.9879V4.00006H16.0005V4.00006ZM3.98452 52.0081V47.9935V44.0101V39.9965V36.0131V31.9984V27.9942V24.0004V19.9962V16.0023V11.9981V8.00429H8.00026V11.9981H11.9848V16.0023H15.9995V19.9962H19.984V24.0004H23.9997V27.9942H27.9843V31.9984V36.0131H23.9997V39.9965H19.984V44.0101H15.9995V47.9935H11.9848V52.0081H8.00026V56.003H3.98452V52.0081ZM80.0026 60.001H76.0181H72.0023H68.0178H64.0021H60.0176H56.0018H52.0173H48.0016V60.0072H43.9869H40.0023H35.9866H32.0021H27.9874H24.0029H19.9871H16.0026H11.9879V56.003H16.0026V52.0081H19.9871V47.9935H24.0029V44.0101H27.9874V39.9965H32.0021V36.0131H35.9866V39.9965H40.0023V44.0101H43.9869V47.9935H48.0016V47.9893H52.0163V44.0059H56.0008V39.9913H60.0165V36.0079H64.001V39.9913H68.0157V44.0059H72.0003V47.9893H76.016V52.0029H80.0005V55.9968H84.0152V60.001H80.0026ZM92.0186 11.9929V15.9971V19.991V23.9952V27.989V31.9932V36.0079V39.9913V44.0059V47.9893V52.0029V55.9968H88.0029V52.0029H84.0183V47.9893H80.0026V44.0059H76.0181V39.9913H72.0023V36.0079H68.0178V31.9932V27.989H72.0023V23.9952H76.0181V19.991H80.0026V15.9971H84.0173V11.9929H88.0018V7.99909H92.0176V11.9929H92.0186Z" fill="white"/>
</svg>
