<svg width="72" height="72" viewBox="0 0 72 72" fill="none" xmlns="http://www.w3.org/2000/svg">
<path d="M64.2857 0H7.71429C3.45536 0 0 3.45536 0 7.71429V64.2857C0 68.5446 3.45536 72 7.71429 72H64.2857C68.5446 72 72 68.5446 72 64.2857V7.71429C72 3.45536 68.5446 0 64.2857 0ZM44.5661 61.6661C43.2161 61.9071 42.7179 61.0714 42.7179 60.3804C42.7179 59.5125 42.75 55.0768 42.75 51.4929C42.75 48.9857 41.9143 47.3946 40.9339 46.5589C46.8804 45.9 53.1482 45.0804 53.1482 34.8107C53.1482 31.8857 52.1036 30.4232 50.4 28.5429C50.6732 27.8518 51.5893 25.0071 50.1268 21.3107C47.8929 20.6196 42.7821 24.1875 42.7821 24.1875C40.6607 23.5929 38.3625 23.2875 36.0964 23.2875C33.8304 23.2875 31.5321 23.5929 29.4107 24.1875C29.4107 24.1875 24.3 20.6196 22.0661 21.3107C20.6036 24.9911 21.5036 27.8357 21.7929 28.5429C20.0893 30.4232 19.2857 31.8857 19.2857 34.8107C19.2857 45.0321 25.2804 45.9 31.2268 46.5589C30.4554 47.25 29.7643 48.4393 29.5232 50.1429C27.9964 50.8339 24.0911 52.0232 21.7607 47.9089C20.2982 45.3696 17.6625 45.1607 17.6625 45.1607C15.0589 45.1286 17.4857 46.8 17.4857 46.8C19.2214 47.6036 20.4429 50.6893 20.4429 50.6893C22.0018 55.4625 29.4589 53.8554 29.4589 53.8554C29.4589 56.0893 29.4911 59.7214 29.4911 60.3804C29.4911 61.0714 29.0089 61.9071 27.6429 61.6661C17.0357 58.1143 9.61071 48.0214 9.61071 36.225C9.61071 21.4714 20.8929 10.2696 35.6464 10.2696C50.4 10.2696 62.3571 21.4714 62.3571 36.225C62.3732 48.0214 55.1732 58.1304 44.5661 61.6661ZM28.8 51.8464C28.4946 51.9107 28.2054 51.7821 28.1732 51.5732C28.1411 51.3321 28.35 51.1232 28.6554 51.0589C28.9607 51.0268 29.25 51.1554 29.2821 51.3643C29.3304 51.5732 29.1214 51.7821 28.8 51.8464ZM27.2732 51.7018C27.2732 51.9107 27.0321 52.0875 26.7107 52.0875C26.3571 52.1196 26.1161 51.9429 26.1161 51.7018C26.1161 51.4929 26.3571 51.3161 26.6786 51.3161C26.9839 51.2839 27.2732 51.4607 27.2732 51.7018ZM25.0714 51.525C25.0071 51.7339 24.6857 51.8304 24.4125 51.7339C24.1071 51.6696 23.8982 51.4286 23.9625 51.2196C24.0268 51.0107 24.3482 50.9143 24.6214 50.9786C24.9429 51.075 25.1518 51.3161 25.0714 51.525ZM23.0946 50.6571C22.95 50.8339 22.6446 50.8018 22.4036 50.5607C22.1625 50.3518 22.0982 50.0464 22.2589 49.9018C22.4036 49.725 22.7089 49.7571 22.95 49.9982C23.1589 50.2071 23.2393 50.5286 23.0946 50.6571ZM21.6321 49.1946C21.4875 49.2911 21.2143 49.1946 21.0375 48.9536C20.8607 48.7125 20.8607 48.4393 21.0375 48.3268C21.2143 48.1821 21.4875 48.2946 21.6321 48.5357C21.8089 48.7768 21.8089 49.0661 21.6321 49.1946V49.1946ZM20.5875 47.6357C20.4429 47.7804 20.2018 47.7 20.025 47.5393C19.8482 47.3304 19.8161 47.0893 19.9607 46.9768C20.1054 46.8321 20.3464 46.9125 20.5232 47.0732C20.7 47.2821 20.7321 47.5232 20.5875 47.6357ZM19.5107 46.4464C19.4464 46.5911 19.2375 46.6232 19.0607 46.5107C18.8518 46.4143 18.7554 46.2375 18.8196 46.0929C18.8839 45.9964 19.0607 45.9482 19.2696 46.0286C19.4786 46.1411 19.575 46.3179 19.5107 46.4464Z" fill="white"/>
</svg>
