<svg width="645" height="651" viewBox="0 0 645 651" fill="none" xmlns="http://www.w3.org/2000/svg">
<path fill-rule="evenodd" clip-rule="evenodd" d="M605.08 158.466L296.161 174.962L296.029 174.619C293.219 174.926 290.386 175.194 287.531 175.423L271.195 176.295C148.57 179.604 36.1762 110.472 19.3996 20.9576C18.073 13.8794 17.3837 6.88405 17.2996 0C9.75558 19.834 7.57433 41.3972 11.7711 63.7898C27.4868 147.644 127.109 213.612 240.448 218.899L228.63 295.017L228.267 295.075C227.989 297.886 227.668 300.712 227.305 303.551L224.793 319.728C202.781 440.405 111.991 536.153 20.941 534.139C13.7413 533.98 6.75387 533.214 0 531.879C17.8557 543.345 38.5078 549.919 61.2848 550.423C148.013 552.341 234.506 465.557 261.545 353.019C262.433 351.784 263.052 350.327 263.301 348.721L283.566 218.195L415.174 211.167L395.176 339.974C366.23 335.511 340.124 324.658 319.477 307.067C313.996 302.397 309.062 297.391 304.668 292.09C311.271 312.257 323.132 330.397 340.474 345.172C354.731 357.318 371.59 366.252 390.19 372.088L386.63 395.017L386.267 395.075C385.989 397.888 385.668 400.716 385.304 403.557L382.794 419.722C360.784 540.402 269.992 636.153 178.941 634.139C171.741 633.98 164.754 633.214 158 631.879C175.856 643.345 196.508 649.919 219.285 650.423C306.013 652.341 392.506 565.558 419.545 453.019C420.433 451.784 421.052 450.327 421.301 448.721L431.992 379.863C469.891 382.634 511.604 375.225 551.787 358.348L503.183 330.286C481.219 337.065 459.163 341.025 437.862 342.055L458.47 209.32C458.495 209.164 458.515 209.008 458.532 208.852L640.901 199.113C642.029 199.053 643.104 198.808 644.097 198.409L605.08 158.466Z" fill="white"/>
</svg>
